<svg xmlns="http://www.w3.org/2000/svg" viewBox="0 0 237.48 93.29"><defs><style>.cls-1{fill:#197a3b;}.cls-2{fill:none;}.cls-3{fill:#0b6d38;}.cls-4{fill:#fff;}</style></defs><g id="레이어_2" data-name="레이어 2"><g id="레이어_1-2" data-name="레이어 1"><path class="cls-1" d="M66.53,62.32H3.76v18.4A7.23,7.23,0,0,0,11,88H66.53Zm-15,16.16H18.79V71.79h32.7Z"/><path class="cls-1" d="M66.53,50.44h3.75v9.47H0V50.44H23.75V41.87h15v8.57h12.7V37H3.76V27.51H61a5.56,5.56,0,0,1,5.56,5.56Z"/><path class="cls-2" d="M184.45,7.32v0Z"/><path class="cls-2" d="M184.42,7.54a.19.19,0,0,1,0-.08A.22.22,0,0,0,184.42,7.54Z"/><path class="cls-2" d="M184.38,7.75v0Z"/><path class="cls-2" d="M180.38,4.78c.32,0,.86,0,1.19,0C181.24,4.77,180.7,4.78,180.38,4.78Z"/><path class="cls-2" d="M184.47,6.57v0Z"/><path class="cls-2" d="M184.47,7a.81.81,0,0,0,0-.15A.81.81,0,0,1,184.47,7Z"/><path class="cls-2" d="M184.46,7.13a.41.41,0,0,0,0-.11A.41.41,0,0,1,184.46,7.13Z"/><polygon class="cls-2" points="184.19 8.46 184.19 8.46 184.2 8.45 184.19 8.46"/><path class="cls-2" d="M182.47,11.07l0,0Z"/><polygon class="cls-2" points="182.86 10.7 182.86 10.7 182.86 10.7 182.86 10.7"/><path class="cls-3" d="M180.26,4.78h0Z"/><path class="cls-3" d="M184.47,7V7Z"/><path class="cls-3" d="M182.5,11c.13-.11.25-.23.36-.34C182.75,10.81,182.63,10.93,182.5,11Z"/><path class="cls-3" d="M184.48,6.8c0-.07,0-.15,0-.23C184.47,6.65,184.48,6.73,184.48,6.8Z"/><path class="cls-3" d="M184.45,7.24a.45.45,0,0,0,0-.11A.45.45,0,0,1,184.45,7.24Z"/><path class="cls-3" d="M184.2,8.45c.08-.24.13-.48.18-.7A5.57,5.57,0,0,1,184.2,8.45Z"/><path class="cls-3" d="M184.43,7.46a.68.68,0,0,1,0-.14A.68.68,0,0,0,184.43,7.46Z"/><path class="cls-3" d="M184.39,7.7l0-.16Z"/><path class="cls-3" d="M182.05,11.41c.15-.11.29-.23.42-.34C182.34,11.18,182.2,11.3,182.05,11.41Z"/><path class="cls-4" d="M149.27,57.63c.56-1.33,1.08-2.79,1.54-4.09a31.18,31.18,0,0,1,1.18-3c.2-.4.48-.9.85-1.52,1-1.8,2.65-4.35,4.24-6.84a.45.45,0,0,1,.55-.18.46.46,0,0,1,.27.53c-.56,2.3-1,4-1.41,5.17-1.09,3.27-2.58,7.71-2.59,7.73l-1.48,3.85a25.33,25.33,0,0,0-.34,3.42v.18c0,1.2,0,1.75.42,2.1a2.13,2.13,0,0,0,1.11.49h.08c.43.12,4.2,1.18,5.28,2.53a3.39,3.39,0,0,1,.95,2.17c0,.82-.61,2.21-4.91,2.26a.46.46,0,0,1-.42-.28,5.14,5.14,0,0,0-1.53-2,12.93,12.93,0,0,0-5.4-2.34.44.44,0,0,1-.35-.43l-.06-2.54v-.09C147.23,62.65,148.15,60.29,149.27,57.63Z"/><path class="cls-4" d="M104.69,67.21c.22-.32.37-.54.6-.91l.66-1c.23-.35.45-.72.67-1.08s.5-.81.76-1.21a4.4,4.4,0,0,0,.35-.62c.28-.54.61-1.3,1-2.1s.85-1.94,1.33-2.9a.44.44,0,0,1,.52-.23,17.18,17.18,0,0,0,2.12.46.45.45,0,0,1,.36.28.46.46,0,0,1-.07.45,11,11,0,0,0-2.28,4.84l-.07.48c-.24,1.48-.46,2.89.16,3.21a5.61,5.61,0,0,0,1.42.41,11.93,11.93,0,0,1,3.06,1c2,1,2.89,2.11,2.9,3.66S116,74.36,112.7,74.4c-.72,0-1.77,0-3.13,0a.44.44,0,0,1-.43-.35,5,5,0,0,0-1-2,17,17,0,0,0-3-2.78l-.2-.15a1.15,1.15,0,0,1-.45-.64A1.36,1.36,0,0,1,104.69,67.21Z"/><path class="cls-4" d="M88.12,68.11a44,44,0,0,0-.65,4.54,3.72,3.72,0,0,0,2.59,3.5c1.63.7,11.17.9,12.57.88,1.72,0,4-.24,4.82-1.18a1.44,1.44,0,0,0,.39-1,2.55,2.55,0,0,0-.41-1.25,9.33,9.33,0,0,0-2.23-2.35c-.36-.3-.71-.56-1-.79l-.12-.1-.33.32.27-.36c-1.16-.89-1.16-1.43-1.16-1.65v-.11a2.28,2.28,0,0,1,.46-1.52c.23-.32.58-.82,1-1.43l.76-1.14c.48-.73,1-1.52,1.5-2.25a60.53,60.53,0,0,0,3-5.77c.33-.7.67-1.39,1-2.05s.69-1.43,1-2l.19-.39c.25-.53.46-1,.61-1.3s.42-.92.61-1.42c-.07.41-.16.84-.25,1.29a10.73,10.73,0,0,1-.52,1.67c-.22.61-.51,1.29-.84,2s-.73,1.55-.73,1.56a.44.44,0,0,0,0,.39.45.45,0,0,0,.29.25,12.68,12.68,0,0,0,3.22.41c.83,0,1.89,0,3.21,0,1-.05,2-.11,3.15-.2a48,48,0,0,0,10.58-1.89.46.46,0,0,0,.29-.3,24.66,24.66,0,0,1,1.47-3.77,8.27,8.27,0,0,1,.59-1c0,.14-.11.28-.16.43a34.46,34.46,0,0,0-1.6,9.6,15.76,15.76,0,0,0,1.51,6.51l.17.41a15.88,15.88,0,0,1,.38,5.65c-.2,1.73.11,2.35.25,2.54,1.5,2.22,4.89,2.37,8.23,2.33l1.21,0,1.16,0h1.16c3.32,0,7.87-.09,7.84-3,0-.06,0-.11,0-.17a3.45,3.45,0,0,0-1.12-2.26,10.8,10.8,0,0,0-5.07-2.27l-.42-.13c-1.3-.44-1.36-1.35-1.38-3.53V65.6c0-2.4,1.29-5.85,2.45-8.6,1.25-3,2.45-6.54,2.66-7.14a57.9,57.9,0,0,0,4.51-6.32c1.18-1.84,2.51-4,3.94-6.5s2.62-4.57,3.43-6l.9-1.63,1-1.86c1.56-2.7,4.57-5.79,6.56-7.83a31.6,31.6,0,0,1,6.42-5.45,14.22,14.22,0,0,1,2-.94,9.85,9.85,0,0,0,2.81-1.54,4.37,4.37,0,0,0,.46-.37,5,5,0,0,0,.4-.39.45.45,0,0,0,0-.57l-.06-.07a5,5,0,0,0,1.43-1.72l0-.07a6.7,6.7,0,0,0,.19-.74V7.78l0-.16V7.56l.06-.59V6.79a2.09,2.09,0,0,0,0-.24,2.69,2.69,0,0,0,0-.31.44.44,0,0,0-.3-.37.43.43,0,0,0-.46.09,1.32,1.32,0,0,1-1.39.41c-.7-.26-.75-1.11-.72-1.59a.47.47,0,0,0-.13-.35.45.45,0,0,0-.35-.13c-.33,0-.86,0-1.17,0h-.13a5.41,5.41,0,0,1-3.11-.88c-.3-.16-.62-.34-1-.51A5.84,5.84,0,0,0,172,1.79h-.59a14.37,14.37,0,0,0-7.84,2.65.49.49,0,0,0-.18.37.59.59,0,0,0,.05.19,7.18,7.18,0,0,0-.67-.27,5.19,5.19,0,0,0-1.85-.32,1.62,1.62,0,0,0-1.38.8,3.09,3.09,0,0,0-.07,2.31,4,4,0,0,0,.6,1.13c-.92-.41-1.82-.84-1.84-.84a.44.44,0,0,0-.49.06,52.08,52.08,0,0,1-6.57,4.7c-3.6,2.14-8.61,4.38-10,4.65a98.17,98.17,0,0,1-9.92.55c-2,0-6.15-.21-9.85-.42-2.89-.16-5.38-.3-6.3-.29-2.53,0-9.79.83-14.88,3a27.34,27.34,0,0,0-10,7c-2.8,2.87-3.76,7.42-3.72,10.71,0,2.73.74,6.28,1.72,11.21l.08.42a49.56,49.56,0,0,1,.85,10.24V61A55.1,55.1,0,0,1,88.12,68.11ZM184.38,7.75Z"/><path class="cls-1" d="M174.56,5a2,2,0,0,1,1.47.62.44.44,0,0,1,0,.61.42.42,0,0,1-.61,0,1.1,1.1,0,0,0-.83-.34,1.16,1.16,0,0,0-1.1.84.44.44,0,0,1-.41.32l-.12,0a.43.43,0,0,1-.3-.53A2,2,0,0,1,174.56,5Z"/><path class="cls-1" d="M86.52,67.6c-.41,2.58-.79,4.23-.78,5a5.27,5.27,0,0,0,3.59,5.07c2.27,1,13.21,1,13.31,1a16.2,16.2,0,0,0,3.54-.39c2.31-.57,3.11-1.79,3.38-2.74,1.34,0,2.56,0,3.4,0,5.3-.06,6.92-1.73,6.9-3.72,0-2.87-2.9-4.52-3.85-5a11.09,11.09,0,0,0-3.19-1l-1.15-.26a10.53,10.53,0,0,1,.19-2.76,12.42,12.42,0,0,1,2-3.69,5.94,5.94,0,0,1,1-.94,37.32,37.32,0,0,0,4.69,0c4.21-.33,8.55-.53,10.36-.7a12.76,12.76,0,0,0-.08,2,20.53,20.53,0,0,0,1.67,7.7,14.8,14.8,0,0,1,.21,4.65,5.39,5.39,0,0,0,.59,3.83c2,2.93,6.29,3.13,10,3.09l1.22,0,1.15,0h1.16a26,26,0,0,0,5.58-.48c3.71-.9,4.09-3.37,4.08-4.4,5.43-.15,6.72-2,6.7-3.46a5.86,5.86,0,0,0-1.86-3.55c-1.36-1.6-4.84-2.66-6.24-3V62.66a16.51,16.51,0,0,1,.21-2.9l1.32-3.83s1.51-4.47,2.59-7.72a62.85,62.85,0,0,0,1.81-6.84s4.38-9.32,5.34-11c.46-.83,1-1.78,1.24-2.15a55.05,55.05,0,0,1,5.87-7.34,30.29,30.29,0,0,1,6-5.13,12.44,12.44,0,0,1,1.81-.83,11.65,11.65,0,0,0,3.25-1.78,8.17,8.17,0,0,0,3.35-6.41,4.94,4.94,0,0,0-.36-2.91c-1.12-1.64-3-1-4.85-1,0,0-3-.17-4.53-1.36C175.13,0,172.22.05,171.93,0l-.15,0h-.14a18.46,18.46,0,0,0-9,2.74l-.16.1a18.9,18.9,0,0,0-2.65-.16,3.79,3.79,0,0,0-2.66.93,2.58,2.58,0,0,0-.72,1.69,3.1,3.1,0,0,0,.14,1,51.75,51.75,0,0,1-6.31,4.51c-3.7,2.2-7.35,4-9.43,4.42a90,90,0,0,1-9.61.52c-1.89,0-5.75-.19-9.42-.4-3-.17-5.83-.18-6.81-.16-1.78,0-9.61.4-15.51,3a31.29,31.29,0,0,0-10.52,7.59c-3.17,3.24-4.48,8.92-4.45,11.85a32.61,32.61,0,0,0,1.21,7.37l.8,3.79c1.08,3,1.24,9.56,1.26,11.87C87.78,62,86.9,65.22,86.52,67.6Zm66.83,2.2a13.09,13.09,0,0,0-5.59-2.43l0-2.54v-.08c0-2.08,1-4.57,2-6.94,1.13-2.7,2.12-6,2.7-7.09.21-.41.5-.91.84-1.5,1-1.75,2.56-4.2,4.23-6.82-.46,1.89-1,3.84-1.4,5.14-1.09,3.27-2.58,7.7-2.58,7.7l-1.5,3.9a27.89,27.89,0,0,0-.36,3.55c0,1.29,0,2.08.57,2.61a2.68,2.68,0,0,0,1.38.6s4.07,1.11,5.06,2.39a3,3,0,0,1,.84,1.87c0,1.07-1.51,1.77-4.46,1.8h0A5.71,5.71,0,0,0,153.35,69.8Zm-48-.93-.19-.15a.73.73,0,0,1-.3-.4,1,1,0,0,1,.2-.84c.39-.53.55-.81,1.28-1.92.5-.75.94-1.54,1.44-2.28.11-.17.24-.4.38-.67.59-1.18,1.41-3.22,2.29-5a15.76,15.76,0,0,0,2.18.48h0a11.55,11.55,0,0,0-2.37,5.05c-.29,1.89-.66,3.64.33,4.16s2.48.4,4.49,1.39,2.64,2,2.65,3.26c0,1.07-1.93,2-5,2-.79,0-1.89,0-3.11,0a5.55,5.55,0,0,0-1.11-2.19A17.89,17.89,0,0,0,105.33,68.87Zm-17.4,3.77c0-1.49,1.64-9.1,1.61-11.69a54.8,54.8,0,0,0-.87-11.57c-1-5.11-1.76-8.79-1.79-11.54,0-3.57,1.06-7.8,3.59-10.39a26.71,26.71,0,0,1,9.91-6.92c5.26-2.28,12.62-3,14.7-3s12.66.76,16.15.72a95,95,0,0,0,10-.57c1.46-.27,6.52-2.52,10.18-4.7a53,53,0,0,0,6.64-4.75s2.66,1.27,3.53,1.54a8.54,8.54,0,0,1-1.66-2.34,2.78,2.78,0,0,1,0-1.95,1.18,1.18,0,0,1,1-.6,5.06,5.06,0,0,1,1.69.29A5.72,5.72,0,0,1,165,6.57a4.72,4.72,0,0,0-1.11-1.76,14,14,0,0,1,7.56-2.56h.62a5.41,5.41,0,0,1,3.87,1.08c1.63.78,2.31,1.48,4.34,1.46h.12c.32,0,.86,0,1.19,0h0a1.91,1.91,0,0,0,1,2,1.8,1.8,0,0,0,1.86-.5v0a1.64,1.64,0,0,1,0,.23v0c0,.08,0,.16,0,.23a.81.81,0,0,1,0,.15V7a.41.41,0,0,1,0,.11.45.45,0,0,1,0,.11v.08a.68.68,0,0,0,0,.14.22.22,0,0,0,0,.08l0,.16v0a5.57,5.57,0,0,1-.18.7h0a4.36,4.36,0,0,1-2.11,2c-1.41.54-3.26,1-3.26,1a12.17,12.17,0,0,0,3.47-.6l.57-.22h0c-.11.11-.23.23-.36.34l0,0c-.13.11-.27.23-.42.34-2.11,1.57-2.6,1.21-4.8,2.44a31.46,31.46,0,0,0-6.52,5.53c-2.2,2.25-5.09,5.24-6.63,7.93-.36.62-1,1.87-1.95,3.49s-2.13,3.8-3.42,6-2.61,4.4-3.93,6.48a55.69,55.69,0,0,1-4.54,6.33s-1.3,3.95-2.67,7.2-2.51,6.47-2.49,8.77c0,2.12,0,3.46,1.69,4a4.41,4.41,0,0,0,.47.14,11,11,0,0,1,4.85,2.16,3,3,0,0,1,1,1.95V74c0,2.36-3.75,2.52-7.38,2.56l-1.16,0c-.78,0-1.58,0-2.37,0-3.27,0-6.51-.12-7.87-2.14,0,0-.37-.42-.16-2.22a16.38,16.38,0,0,0-.41-5.87,16.33,16.33,0,0,1-1.65-6.76,34,34,0,0,1,1.58-9.44,27.43,27.43,0,0,1,1.26-3,9.75,9.75,0,0,0-2.52,3.21,27,27,0,0,0-1.51,3.84,48,48,0,0,1-10.47,1.87c-1.2.09-2.23.15-3.13.2l-2,.06h-1.22A12,12,0,0,1,111,56s.34-.66.74-1.57c.28-.62.59-1.35.86-2.06a11.92,11.92,0,0,0,.53-1.74A32.65,32.65,0,0,0,113.9,45a39.74,39.74,0,0,1-2,5.54l-.8,1.69-1,2c-.32.66-.65,1.35-1,2-1.17,2.4-2.38,4.78-3,5.71-.78,1.15-1.61,2.41-2.27,3.4-.4.6-.74,1.1-1,1.42a2.77,2.77,0,0,0-.54,1.89c0,.42.13,1.07,1.35,2l.05,0,1.12.88A9.48,9.48,0,0,1,107,73.84a2.18,2.18,0,0,1,.35,1,1,1,0,0,1-.27.67c-.79.87-3.14,1-4.5,1-1.65,0-10.91-.21-12.38-.84A3.27,3.27,0,0,1,87.93,72.64Z"/><path class="cls-2" d="M57.09,13.05v0Z"/><path class="cls-2" d="M57.11,13.27s0,0,0-.08S57.11,13.25,57.11,13.27Z"/><path class="cls-2" d="M57.14,13.5v0Z"/><path class="cls-2" d="M61.51,10.65l-1.25-.11Z"/><path class="cls-2" d="M57.11,12.26v0Z"/><path class="cls-2" d="M57.09,12.66v0Z"/><path class="cls-2" d="M57.09,12.84a.2.2,0,0,1,0-.11A.2.2,0,0,0,57.09,12.84Z"/><polygon class="cls-2" points="57.28 14.25 57.28 14.25 57.28 14.25 57.28 14.25"/><path class="cls-2" d="M58.92,17.09l0,0Z"/><polygon class="cls-2" points="58.54 16.68 58.54 16.68 58.54 16.68 58.54 16.68"/><path class="cls-3" d="M61.64,10.66h0Z"/><path class="cls-3" d="M57.09,12.73v0Z"/><path class="cls-3" d="M58.89,17.07c-.13-.13-.24-.26-.35-.39C58.65,16.81,58.76,16.94,58.89,17.07Z"/><path class="cls-3" d="M57.09,12.5a1.94,1.94,0,0,0,0-.24A1.94,1.94,0,0,1,57.09,12.5Z"/><path class="cls-3" d="M57.09,13v0Z"/><path class="cls-3" d="M57.28,14.25a6.06,6.06,0,0,1-.14-.75A6.06,6.06,0,0,0,57.28,14.25Z"/><path class="cls-3" d="M57.1,13.19a.66.66,0,0,0,0-.14A.66.66,0,0,1,57.1,13.19Z"/><path class="cls-3" d="M57.13,13.45a1.1,1.1,0,0,1,0-.18A1.1,1.1,0,0,0,57.13,13.45Z"/><path class="cls-3" d="M59.33,17.48a5.08,5.08,0,0,1-.41-.39A5.08,5.08,0,0,0,59.33,17.48Z"/><path class="cls-4" d="M90.7,68c-.5-1.43-1-3-1.36-4.38a32.71,32.71,0,0,0-1-3.25c-.19-.42-.45-1-.79-1.64-1-2-2.51-4.72-4-7.43a.48.48,0,0,0-.89.31c.44,2.45.82,4.3,1.14,5.5.93,3.5,2.22,8.24,2.22,8.26l1.31,4.13a29.44,29.44,0,0,1,.14,3.61l0,.18c-.09,1.26-.15,1.83-.57,2.18a2.3,2.3,0,0,1-1.2.43h-.08c-.46.1-4.47,1-5.7,2.31a3.63,3.63,0,0,0-1.13,2.21c-.06.86.5,2.35,5,2.68a.49.49,0,0,0,.46-.26,5.49,5.49,0,0,1,1.73-2,13.56,13.56,0,0,1,5.8-2.1.47.47,0,0,0,.4-.43l.22-2.65v-.1C92.51,73.37,91.7,70.83,90.7,68Z"/><path class="cls-4" d="M136.76,80.86c-.21-.34-.35-.59-.57-1l-.62-1.09c-.23-.38-.43-.78-.64-1.17s-.47-.88-.72-1.31c-.09-.16-.2-.38-.33-.67-.25-.59-.55-1.41-.87-2.27s-.77-2.09-1.21-3.12a.47.47,0,0,0-.53-.28,16,16,0,0,1-2.25.35.47.47,0,0,0-.39.27.48.48,0,0,0,0,.48,11.61,11.61,0,0,1,2.08,5.22l0,.5c.15,1.57.29,3-.38,3.35a5.94,5.94,0,0,1-1.51.34,11.88,11.88,0,0,0-3.26.82c-2.15.9-3.16,2-3.28,3.64s2.12,2.69,5.56,2.94c.75.05,1.85.11,3.27.16a.48.48,0,0,0,.48-.34,5.22,5.22,0,0,1,1.2-2A18.17,18.17,0,0,1,136.25,83l.21-.14a1.28,1.28,0,0,0,.52-.64A1.43,1.43,0,0,0,136.76,80.86Z"/><path class="cls-4" d="M153.5,75.32c0-.41.06-.84.09-1.31a51,51,0,0,1,1.54-10.67l.12-.43c1.34-5.09,2.31-8.77,2.51-11.62.25-3.45-.46-8.28-3.21-11.46a28.57,28.57,0,0,0-10.07-8c-5.19-2.64-12.74-3.95-15.38-4.14-1-.07-3.58-.09-6.62-.1-3.89,0-8.29,0-10.33-.19a100.73,100.73,0,0,1-10.36-1.22c-1.48-.37-6.59-3-10.21-5.5A56.77,56.77,0,0,1,85,15.34a.46.46,0,0,0-.5-.1s-1,.4-2,.77a4.28,4.28,0,0,0,.69-1.14,3.24,3.24,0,0,0,.09-2.42,1.7,1.7,0,0,0-1.4-.93,5.47,5.47,0,0,0-2,.21l-.72.24a.33.33,0,0,0,.06-.19.5.5,0,0,0-.16-.4,15,15,0,0,0-8-3.28l-.62,0A6.13,6.13,0,0,0,66.05,9c-.39.16-.74.32-1.06.47a5.72,5.72,0,0,1-3.32.72h-.13c-.33,0-.88-.06-1.23-.1a.48.48,0,0,0-.36.12.44.44,0,0,0-.16.35c0,.51-.11,1.39-.86,1.62a1.39,1.39,0,0,1-1.43-.52.47.47,0,0,0-.81.24c0,.1,0,.2,0,.33s0,.17,0,.25,0,.12,0,.19l0,.62v.07l0,.16v.07a5.36,5.36,0,0,0,.15.78.19.19,0,0,0,0,.08,5.49,5.49,0,0,0,1.39,1.9l-.06.06a.47.47,0,0,0,0,.6c.11.14.24.27.4.44a5.92,5.92,0,0,0,.45.41,10.43,10.43,0,0,0,2.84,1.79A15.69,15.69,0,0,1,64,20.75a32.84,32.84,0,0,1,6.36,6.12c2,2.26,4.92,5.68,6.37,8.62.21.42.54,1.12,1,2l.84,1.76c.76,1.57,1.91,4,3.2,6.53s2.6,5.05,3.71,7.06a58.64,58.64,0,0,0,4.33,6.9c.17.64,1.2,4.47,2.32,7.65,1,2.95,2.2,6.65,2,9.16v.07c-.17,2.29-.29,3.23-1.67,3.62l-.45.1a11.13,11.13,0,0,0-5.45,2.06,3.53,3.53,0,0,0-1.32,2.29.88.88,0,0,0,0,.17c-.22,3.07,4.53,3.41,8,3.66l1.21.09,1.22.1,1.26.09c3.5.26,7.06.32,8.77-1.91.16-.18.52-.82.43-2.64a16.46,16.46,0,0,1,.75-5.89L107,78a16.63,16.63,0,0,0,2-6.72A35.81,35.81,0,0,0,108,61.08c0-.16-.09-.31-.13-.47a11.48,11.48,0,0,1,.55,1.11,29.27,29.27,0,0,1,1.3,4,.48.48,0,0,0,.28.34,50.26,50.26,0,0,0,11,2.65c1.22.17,2.29.31,3.29.41,1.37.15,2.48.24,3.35.27a13.39,13.39,0,0,0,3.39-.23.49.49,0,0,0,.33-.25.47.47,0,0,0,0-.4s-.31-.72-.67-1.68c-.3-.8-.56-1.53-.76-2.18a13,13,0,0,1-.43-1.78c-.07-.48-.13-.93-.18-1.37.17.53.35,1.05.55,1.53s.33.83.56,1.39l.17.43c.26.66.57,1.41.89,2.2s.59,1.46.9,2.2a67.69,67.69,0,0,0,2.82,6.24L136.57,78l.72,1.25c.39.66.71,1.21.93,1.56a2.31,2.31,0,0,1,.39,1.62v.11c0,.24-.06.79-1.33,1.66l.26.39-.32-.35-.14.09-1.1.76a10,10,0,0,0-2.49,2.32,2.61,2.61,0,0,0-.51,1.28,1.48,1.48,0,0,0,.35,1.06c.84,1,3.17,1.42,5,1.55,1.47.11,11.47.51,13.21-.11a3.93,3.93,0,0,0,2.94-3.51,43.11,43.11,0,0,0-.39-4.79A58.38,58.38,0,0,1,153.5,75.32ZM57.14,13.5Z"/><path class="cls-1" d="M67.6,11.22a2.06,2.06,0,0,0-1.58.56.46.46,0,0,0,0,.64.45.45,0,0,0,.64,0,1.14,1.14,0,0,1,.89-.3,1.2,1.2,0,0,1,1.09.95.46.46,0,0,0,.41.36h.13a.46.46,0,0,0,.35-.54A2.13,2.13,0,0,0,67.6,11.22Z"/><path class="cls-1" d="M154.9,75.17c.17-2.41.76-9.31,2.08-12.34l1.08-3.92a34.34,34.34,0,0,0,1.74-7.63c.23-3.08-.79-9.1-3.9-12.7A32.77,32.77,0,0,0,145.38,30c-6-3.15-14.18-4.06-16-4.19-1-.08-4-.25-7.14-.27-3.86,0-7.91,0-9.89-.18a94.74,94.74,0,0,1-10-1.17c-2.15-.57-5.86-2.68-9.58-5.22a55.81,55.81,0,0,1-6.33-5.13,3.36,3.36,0,0,0,.22-1.07,2.76,2.76,0,0,0-.65-1.82,4,4,0,0,0-2.72-1.14,18.55,18.55,0,0,0-2.79,0l-.16-.12A19.37,19.37,0,0,0,71,6.2h-.3c-.31,0-3.35-.27-5.44,1.14-1.7,1.14-4.82,1.13-4.82,1.13-1.91-.14-3.87-.9-5.14.75a5.18,5.18,0,0,0-.57,3,8.58,8.58,0,0,0,3.1,6.93,12.51,12.51,0,0,0,3.29,2.07,12.76,12.76,0,0,1,1.84,1A31.33,31.33,0,0,1,68.87,28,58.09,58.09,0,0,1,74.55,36c.23.4.73,1.43,1.16,2.33.89,1.86,4.88,11.89,4.88,11.89a66.81,66.81,0,0,0,1.46,7.29c.92,3.47,2.2,8.2,2.21,8.25l1.14,4.09a18.27,18.27,0,0,1,0,3l-.09,1.21c-1.49.31-5.2,1.19-6.73,2.78-.43.4-2.05,1.84-2.18,3.59-.11,1.49,1.12,3.55,6.8,4.06-.07,1.08.17,3.69,4,4.87a27.9,27.9,0,0,0,5.81.86l.62,0,.6,0,1.2.1,1.28.1c3.82.27,8.3.34,10.61-2.6.68-.81,1-2.11.87-4a15.28,15.28,0,0,1,.52-4.86,21.89,21.89,0,0,0,2.23-8,13.76,13.76,0,0,0,0-2.14c1.89.3,6.41.79,10.8,1.4a37.09,37.09,0,0,0,4.91.34,5.61,5.61,0,0,1,1,1,12.87,12.87,0,0,1,1.84,4,11,11,0,0,1,0,2.9l-1.23.2a11.9,11.9,0,0,0-3.41.89c-1,.42-4.12,2-4.34,5-.15,2.08,1.43,3.94,7,4.34.88.07,2.16.13,3.57.19.21,1,1,2.34,3.36,3.09a17.54,17.54,0,0,0,3.67.63c.12,0,11.57.65,14-.23a5.51,5.51,0,0,0,4.08-5.07c.07-.84-.22-2.6-.49-5.33C155.51,79.93,154.8,76.51,154.9,75.17ZM83.77,82.62h0c-3.09-.23-4.64-1.06-4.56-2.17a3.12,3.12,0,0,1,1-1.91c1.13-1.28,5.45-2.18,5.45-2.18a2.81,2.81,0,0,0,1.49-.54c.63-.52.66-1.34.76-2.7a28.81,28.81,0,0,0-.14-3.74l-1.33-4.17S85.16,60.47,84.23,57c-.36-1.38-.77-3.46-1.13-5.46,1.58,2.85,3,5.51,4,7.41.32.63.59,1.18.78,1.63.54,1.21,1.36,4.69,2.38,7.58.9,2.56,1.79,5.22,1.63,7.4v.09l-.21,2.65a13.82,13.82,0,0,0-6,2.19A5.9,5.9,0,0,0,83.77,82.62Zm48.75,2.73a5.73,5.73,0,0,0-1.31,2.22c-1.27,0-2.43-.11-3.26-.17-3.22-.23-5.2-1.29-5.12-2.42.1-1.3.83-2.34,3-3.24s3.72-.68,4.79-1.16.79-2.34.61-4.34a12.12,12.12,0,0,0-2.16-5.44h0a18.69,18.69,0,0,0,2.31-.36c.81,1.93,1.53,4.11,2.08,5.38a5,5,0,0,0,.35.73c.48.81.88,1.67,1.36,2.48.7,1.21.84,1.51,1.21,2.1a1,1,0,0,1,.16.88.73.73,0,0,1-.33.4l-.22.15A18.74,18.74,0,0,0,132.52,85.35Zm18.82,5.37c-1.58.57-11.28.21-13,.09-1.42-.11-3.86-.42-4.63-1.38a1,1,0,0,1-.24-.72,2.19,2.19,0,0,1,.42-1.06,10.3,10.3,0,0,1,2.38-2.19c.44-.33.87-.61,1.22-.85l.06,0c1.34-.91,1.51-1.58,1.54-2a2.83,2.83,0,0,0-.44-2c-.22-.35-.55-.9-.93-1.55-.63-1.08-1.41-2.45-2.15-3.7-.6-1-1.71-3.59-2.79-6.18l-.9-2.2-.89-2.2c-.3-.75-.56-1.38-.73-1.82a41.84,41.84,0,0,1-1.7-5.92,34.87,34.87,0,0,0,.42,6,14.42,14.42,0,0,0,.45,1.85c.23.76.51,1.54.76,2.21.37,1,.68,1.69.68,1.69a12.73,12.73,0,0,1-3.28.22c-.38,0-.81,0-1.28-.07s-1.27-.1-2-.19c-.94-.1-2-.23-3.28-.41a50.66,50.66,0,0,1-10.84-2.62,27,27,0,0,0-1.33-4.12A10.12,10.12,0,0,0,106.37,58a29.35,29.35,0,0,1,1.13,3.19,35.81,35.81,0,0,1,1,10,17,17,0,0,1-2.17,7,17.21,17.21,0,0,0-.8,6.13c.1,1.9-.31,2.31-.31,2.31-1.55,2-5,2-8.37,1.74l-2.48-.19-1.22-.09c-3.8-.28-7.75-.68-7.57-3.15,0-.06,0-.11,0-.17a3.13,3.13,0,0,1,1.15-2,11.37,11.37,0,0,1,5.22-2,3.47,3.47,0,0,0,.51-.12c1.78-.49,1.86-1.89,2-4.11.17-2.41-.82-5.85-2-9.34s-2.34-7.72-2.34-7.72a57.3,57.3,0,0,1-4.34-6.91c-1.26-2.26-2.53-4.71-3.7-7s-2.32-4.68-3.2-6.53-1.48-3.1-1.81-3.77c-1.45-2.92-4.28-6.23-6.44-8.72a32.45,32.45,0,0,0-6.47-6.21c-2.23-1.44-2.76-1.09-4.88-2.87a5.08,5.08,0,0,1-.41-.39l0,0c-.13-.13-.24-.26-.35-.39h0a4.43,4.43,0,0,0,.58.27,12.57,12.57,0,0,0,3.59.85s-1.9-.65-3.34-1.3a4.65,4.65,0,0,1-2.09-2.25h0a6.06,6.06,0,0,1-.14-.75v-.05a1.1,1.1,0,0,1,0-.18s0,0,0-.08a.66.66,0,0,0,0-.14v-.21a.2.2,0,0,1,0-.11V12.5a1.94,1.94,0,0,0,0-.24v0q0-.11,0-.24v0a1.87,1.87,0,0,0,1.91.64c1.07-.32,1.19-1.53,1.19-2.07h0l1.25.11h.13c2.12.15,2.88-.54,4.64-1.25a5.65,5.65,0,0,1,4.12-.89l.64.05a14.7,14.7,0,0,1,7.76,3.17,5,5,0,0,0-1.28,1.77,6,6,0,0,1,2.55-1.32,5,5,0,0,1,1.79-.2,1.23,1.23,0,0,1,1,.69,2.89,2.89,0,0,1-.12,2,8.9,8.9,0,0,1-1.88,2.34c.93-.22,3.79-1.38,3.79-1.38a56.18,56.18,0,0,0,6.65,5.4c3.69,2.51,8.85,5.2,10.36,5.57a99.64,99.64,0,0,0,10.44,1.24c3.65.26,14.78.12,17,.28s9.83,1.37,15.2,4.09a28,28,0,0,1,9.92,7.88c2.49,2.88,3.37,7.38,3.1,11.11-.21,2.89-1.23,6.69-2.62,12A57.2,57.2,0,0,0,153,75.29c-.2,2.7,1.05,10.78.93,12.34A3.43,3.43,0,0,1,151.34,90.72Z"/><path class="cls-1" d="M233.73,62.32H171v18.4A7.23,7.23,0,0,0,178.19,88h55.54Zm-15,16.16H186V71.79h32.7Z"/><path class="cls-1" d="M233.73,50.44h3.75v9.47H167.2V50.44H191V41.87h15v8.57h12.7V37H171V27.52h57.21a5.55,5.55,0,0,1,5.56,5.55Z"/></g></g></svg>