<?xml version="1.0" encoding="utf-8"?>
<!-- Generator: Adobe Illustrator 25.2.1, SVG Export Plug-In . SVG Version: 6.00 Build 0)  -->
<svg version="1.1" id="레이어_1" xmlns="http://www.w3.org/2000/svg" xmlns:xlink="http://www.w3.org/1999/xlink" x="0px"
	 y="0px" viewBox="0 0 341.9 359.9" style="enable-background:new 0 0 341.9 359.9;" xml:space="preserve">
<style type="text/css">
	.st0{clip-path:url(#SVGID_2_);}
	.st1{clip-path:url(#SVGID_4_);}
	.st2{clip-path:url(#SVGID_6_);}
	.st3{clip-path:url(#SVGID_8_);}
	.st4{fill:#3C96FF;}
	.st5{fill:#A0D468;}
	.st6{clip-path:url(#SVGID_10_);}
	.st7{fill:#0C662F;}
	.st8{fill:#FFFFFF;}
	.st9{fill:#96CA3A;}
	.st10{fill:#FFFFFF;stroke:#0C662F;stroke-width:7.32;stroke-linecap:round;stroke-linejoin:round;}
	.st11{fill:none;stroke:#0C662F;stroke-width:4.88;stroke-linecap:round;stroke-linejoin:round;}
	.st12{fill:#FFCF07;}
	.st13{fill:#0C662F;stroke:#0C662F;stroke-width:4.64;stroke-linecap:round;stroke-linejoin:round;}
	.st14{fill:#0C662F;stroke:#0C662F;stroke-width:4;stroke-linecap:round;stroke-linejoin:round;}
	.st15{fill:#FAC305;stroke:#0C662F;stroke-width:1.13;stroke-miterlimit:5.63;}
	.st16{fill:#FF9632;stroke:#0C662F;stroke-width:1.5;stroke-miterlimit:7.5;}
</style>
<g id="레이어_2_1_">
	<g id="레이어_1-2">
		<g>
			<defs>
				<rect id="SVGID_1_" width="341.9" height="330.5"/>
			</defs>
			<clipPath id="SVGID_2_">
				<use xlink:href="#SVGID_1_"  style="overflow:visible;"/>
			</clipPath>
			<g class="st0">
				<g>
					<defs>
						<rect id="SVGID_3_" width="341.9" height="330.5"/>
					</defs>
					<clipPath id="SVGID_4_">
						<use xlink:href="#SVGID_3_"  style="overflow:visible;"/>
					</clipPath>
					<g class="st1">
						<g>
							<defs>
								<circle id="SVGID_5_" cx="170.9" cy="170.9" r="170.9"/>
							</defs>
							<clipPath id="SVGID_6_">
								<use xlink:href="#SVGID_5_"  style="overflow:visible;"/>
							</clipPath>
							<g class="st2">
								<g>
									<defs>
										<circle id="SVGID_7_" cx="170.9" cy="170.9" r="170.9"/>
									</defs>
									<clipPath id="SVGID_8_">
										<use xlink:href="#SVGID_7_"  style="overflow:visible;"/>
									</clipPath>
									<g class="st3">
										
											<rect x="33.4" y="-75.5" transform="matrix(0.3987 -0.9171 0.9171 0.3987 -47.2568 298.8922)" class="st4" width="341.9" height="522"/>
										<path class="st5" d="M-21.6,139.9c2.1-0.6,3.1-0.8,4.6-2.3c0.3-0.3,1.7-1.2,1.4-1.6c-0.6-0.7-1.1-0.8-0.4-1.5
											c0.4-0.4,1.4-1.6,1.9-1.7s1.6,1.2,2.1,0.6c1.6-2.2,5.9-3.6,8.6-3c1.7,0.4,3.5-0.2,5.2-0.6c1.1-0.2,2.2,2.6,2.8,3.5
											c0.4,0.6,2.2,2,2.8,0.7c0.7-1.6,0.9-4,2.8-3.4c1.7,0.5,3,1.6,3.7,3.2c1.1,1.8-3.7,0.6-3.9,0.9c-1.1,1.4,1.3,1.6,0.2,3
											c-0.6,0.8-2.9,2.8-2.5,0.3c0.2-1.5,0.4-3.4-1-1.3c-0.9,1.4-1.6,1.4-3.2,1.8s-3.4,1-5,1.5c-1,0.3-1.6,2.7-2,3.6
											c-0.2,0.6-3,1.8-3.6,1.4c-1.1-0.5-2.4-0.6-3.2-1.6c-0.6-0.7-0.6-3.7-1.5-4.1c-1.7-0.7-2.8-0.6-3.7,1.1
											c-1.1,1.9-1,2.4-3.1,2.5s-3.5,0.7-5-0.8C-25,141.1-22.1,140-21.6,139.9L-21.6,139.9z"/>
										<path class="st5" d="M301.4,117c1.3,2.2,3.5,3.6,5.4,5.4c1.2,1.2,1.5,5.3,2,7.1c0.3,1.1-1.7,5.9-0.6,6.4
											c2.6,1.4,2.1-1.4,5-2c2.3-0.4,4.2,1.5,5.9-0.5c1-1.1,2-2.3,3.1-3.4c0.5-0.6-0.2-1.9,0.3-2.4c1.4-1.6,4-4.5,3.4-7
											s-3.8-5.9-1.9-7.8c1.6-1.6,5.2,1.3,5.3-1c0-1.3-3-0.6-3.6-1.8c-1.4-2.8,3.7,1.3,5.1,0.5c1.1-0.7-0.8-4.7,0.1-5.6
											c1.3-1.3,3-4.1,4.7-4.8c2.2-1,4-2.6,6.1-1.4c2.3,1.3,2.8,3,5.2,1.7c0.6-0.3,1.2-0.6,1.7-1c0.2-0.2-0.3-1.3,0-1.5
											c0.9-0.9,5.5-6,2.9-7.9c-1.9-1.3-6.3-0.1-4.8-3.1s-3.5-2.1-4.5-4.4c-1.1-2.9-3.6-5.1-6.7-5.6c-1.5-0.4-1.8,2.2-3.3,1.5
											c-2.2-1,0.1-1.4-1.2-3.4c-1.1-1.6-3.5-0.8-5.2,0c-2.3,1.1-4.7,0.5-3.4-1.7c0.5-0.9,2.2,0.9,3,0.2c2.1-1.9-0.5-5.9-3-4.6
											c-2.2,1.1-3.4,2.8-4,1.3c-1.7-3.7-4.8-4.5-7.1-5c-2-0.5-4.1-1-6.1-1.4c-0.9-0.2-4.4,1.4-4.3,2.4c0,0.1,0.1,0.3,0.1,0.4
											c-0.3-0.1-0.6,0.1-1.1,0.6c-1,0.8,1.2,3.4,0,3.6c-3.3,0.7-1.8-3.4-4.9-5.1s-5-3.4-6.1-0.3c-1,2.6,2.4,5.1,3.6,7.6
											s4.8,3.8,2.4,5.4c-6.1,3.9-5.5,18.9-6.3,21.9c-0.2,1,2.9,2.7,3.3,3.8c0.7,1.9,1,4.2,2.8,5c0.6,0.2,5.3,1.6,5.2,1.6
											c-2.1,0.3,0.6,4.1,1.7,6L301.4,117z M310,72.2c-2.5,1.8-4.1-0.2-6.7-1.8c-1-0.8-1.6-1.9-1.9-3.1c1.2,1,4,1,5.6,1.7
											C309.1,70.1,312,70.9,310,72.2z"/>
										<path class="st5" d="M326.2,115.9c-0.8-2.2,1.3-4.6,3.5-2.3C331.1,115.2,326.8,117.7,326.2,115.9z"/>
										<path class="st5" d="M-29.4,171.4c0.1-0.4-0.7-0.7-0.7-1.1c-0.1-2.8,3.7-4.2,5.6-6.4c0.6-0.7,2.4-0.1,3.2-0.7
											s1.2-3.2,1.4-3.6c0.5-0.7,0.9-1.4,1.2-2.2c1.6-4.4,1.2-4,3.4-4.4s2.4-6,4.7-5.1c3.5,1.6-3.4,13.2,0,15
											c1.3,0.7,6.3-1,7.2-2.1c0.7-0.9,0.6-3.5,0.5-5.6c-0.1-1.2,0.8-2.2,2-2.2c0.2,0,0.4,0,0.6,0.1c2.2,0.5,4.3,1.5,6,3
											c1.8,1.4,2.2,1.4,2.1,3.6c-0.2,2.6-1,5.1,1.4,4.5c1.1-0.3,0.4-3.1,1.6-3.1c4.5-0.3,5.2,7.4,7.8,11c0.3,0.4-0.6,1.5-0.8,2
											c-0.5,0.9-0.1,1.8,0.1,2.8s3.5,1.7,4.5,2.6c1.9,1.9,3.8,3.9,5.6,5.8c1.1,1.2,0.3,4.3,0.2,5.8c-0.2,4.7-2.1,8.3-3.9,12.6
											c-0.3,0.7-2.3,4-1.8,4.8c1.4,2.5,1.8,3.8-1.2,4.4c-4,0.8-7.5-3.5-11.2-5.1c-2.2-1-0.5-2.6-3.2-4c-2.2-1.2-4.2-2.6-6-4.4
											c-2.4-2.5-7.4,5.5-8.3,3.9c-0.6-1.1-1.7-2-3-2.3c-2.7-0.5,1.6,2.9,1.2,4c-0.8,1.9-1.5-1.3-3.4-0.8
											c-1.5,0.4-1.1,7.5-3.1,6.1c-1.4-1-3.1,0.7-4,1.2c-0.2,0.1-0.6,0-0.7,0.2c-0.8,0.8-0.5,3.4-0.8,4.5c-0.2,0.8-1,2.8-1.6,3
											c-0.4,0.2-3.3-2.3-3.7-2.8c-1.8-2.6,0.5-5.8-0.4-7.3c-0.7-1.2-2.7-1.4-3.2-2.3c-1-1.7-1.2-6.3-1.4-7.7
											c-0.4-3.1-0.1-4.8-2.6-6.7c-1.2-0.9-0.8-7.1-0.9-8.6c-0.3-2.7,0.6-4.9,1.2-7.6c0.7-3,3.9-1.6,4.7-4.7L-29.4,171.4z"/>
										<path class="st5" d="M53.1,160c0.8-0.1,2.1-1.5,2.7-1.9l5.4-3.8c1.6-1.1,3.1-2.2,4.6-3.3c0.7-0.5,1.1,0.4,2-0.2
											c2-1.4,4-2.4,5.3-4.1c0.5-0.3,0.6-0.9,0.3-1.4c-0.3-0.5-0.9-0.6-1.4-0.3c-2.6,0.8-7,5.1-7.9,2.5s2.6-4.5,5.1-5.9
											c0.9-0.4,2.2-0.3,2.9-1c1.4-1.6,0.7-1.5,1-3.3c0.3-1.5,1.7-2,2.9-2.8c0.4-0.2-0.1-1.4-0.2-1.8c-0.1-0.6,0.8-1,1.2-1.3
											s1.1,0.3,1.4,0.1c0.4-0.6,0.8-1.2,1-1.9c0.7-1.4,1.2-3.5,2.7-2.9c2.7,1.1,1.9,4.3,3.8,1.3c1.4-2.3,4.4-2.8,6.8-3.7
											c0.8-0.3,0.6-0.2,1.2-1.2c1.1-2,0.9-0.1,1.7,0.6c1.8,1.5,5.3-0.4,3.9,2.8c-0.8,2,1.5,5.8,2.2,7.7s2.7,5,1.4,6.7
											c-1.2,1.5-2,3.3-2.3,5.3c-0.3,1.6-0.5,3.2-0.6,4.8c0,1.5,1.3,2.6,2.7,2.6c0.6,0,1.2-0.3,1.7-0.7
											c4.8-4.1,9.5-8.2,14.2-12.3c0.9-0.8,1.4-2,1.3-3.2c-0.2-1.2,1.7-3.5,1.6-2c-0.2,1.9,0.2,3.3,2.2,3.4
											c1.8,0.2,3.5,0,3.7-1.8c0.1-1-1.9-1.7-1.1-2.1s1.4,1,2.1,1.3c2.1,0.7,4.5-2.1,6.6-1.1c1.8,0.8,3.8,2.3,5.4,3
											c1,0.4,6.1,2.3,6.7,1.7c2.8-2.5,1.8,0.1,4.1,1s5,0.2,7.5-0.1c1.9-0.2,1.2-3,3.9-2.1c1.8,0.6,0.6,3-0.5,3.7
											c-2,1.2-4.1,4.9-6,3.5c-0.6-0.5,1.2-3.8-0.7-3.4c-1.6,0.3-0.6,2.7-1.9,3.2c-2.3,1-2.6-1-3.1-3.4c-0.3-1.7-3,0-5,0.1
											c-1.7,0.1-4.7-0.4-5.4,1.3c-1.3,3,1.1,8.8,1.7,12c0.1,0.7,1.5,1,2,1.2c1.5,0.7-0.2,0.8,0.2,2c0.3,1,3.7,3.8,4.4,4.5
											c1.2,1.3,6.3,3.5,7.5,5.2c2.3,3.1-5.1,2.9-7.6,0.6c-2.3-2.1-4.4-5.5-6.1-1.2c-1.3,3.4-0.6,7.4,0.5,10.6
											c1.7,4.8,3.5,9.7,5.2,14.6c0.9,2.4,2.1,6.3,0.7,9.2c-1.6,3.5-4.8,5-6.6,8.3c-1.1,2.2-2.6,3.4-1.7,5.7
											c0.5,1.1,6.4,9.7,5.4,10.9c-1,1.2-1.7,2.6-1.9,4.1c-0.4,2.8-1.2,3-0.1,4.6c0.4,0.6,1.9,2,1.9,2.8c0.1,1.1-2.2,3-1.7,4.1
											l3,7.6c0.5,1.1,1.1,4.3,2.1,5c2.1,1.4,2.9,2.4,5.3,3.4c0.7,0.3,2.3,0.7,2.9,1.3s0.6,2.2,1.3,2.7c2.2,1.4,3.2,0.2,4.7-1.1
											c0.4-1.1,0.5-2.3,0.4-3.4c-0.2-0.4,2-0.9,2.4-1.1c1.6-0.6,2.7-2.6,3.9-3.8c1.6-1.7,3.3-3.2,5-4.9c1.1-1,1-4.2,1.8-4.7
											c1.6-1.1,4-2,5.3-3.4s1.7-3.4,2.3-5.1c1-2.8,1-3.4,0-6.2s3.7-7.7,5.4-9.3c2.3-2.1,5.6-3.4,8.7-4.7c2.4-1.1-1-14.4,6.4-7.8
											c1.2,1.1,2.8-0.3,4.1-0.9c2.5-1.1,4.9,1.2,6.4,3.1c2,2.7,2.7,2.8,6,3.4c2.6,0.5,3.6,3.8,10.4,3.7c1.7-0.1,3.4-0.6,4.9-1.3
											c2.7-0.9,5.2-2.4,7.4-4.3c0.6-0.5,2-2.2,2.4-2.5s-0.1-0.7,0.6-0.9c0.5-0.1,1,0,1.1-0.5c0.1-0.8,0.1-1.5,0-2.3
											c0.4-2.1,1.6-4.2,2.4-6.2c0.5-1.2,2.5-1.2,2.7-2c0.2-1.3-0.6-3.2-0.8-4.6c-0.3-2.4-0.6-4.8-1-7.2
											c-0.4-2.8-3.6-4.7-3.5-7.2c0.1-1.7,0.9-4.8,0.4-6.4s-2.2-1.8-2.2-3.8c0-2.4-0.4-2.1-2.6-3.1c-1.4-0.6-3.5-1-4.3-2.4
											c-1.2-2.2-2.5-2.9-4.7-4.4c-1.2-0.8-3.6-3.2-5.1-3.3c-1.2-0.1-2.7,0.2-3.4-1.3c-0.3-0.7-0.9-1.3-1.7-1.6
											c-3.1-1-1.5,2.6-2.7,2.8c-2.3,0.4,0.4,3.6-2.7,3.3c-1.9-0.1-3.9-0.5-5.8-0.8c-0.8-0.1-1.4,1.3-2.2,1.3
											c-1.3,0-2.6,0-3.9,0.1c-0.6,0-2.1-0.8-2-1.5c0.1-0.8,1.6-0.5,1.8-1.2c0.7-2.7-2.1-3.5-4-4.3c-0.7-0.3-1.4,1.1-2.2,1
											s-6.3-1.4-8.1-2.1c-2-0.8-0.8-2.7-3.8-2.4c-4,0.3-1.3-6.1-0.8-7.7c0.1-0.5,0.2-2.3,0.6-2.2s0.9,1.5,1.5,1.8
											c2.1,1.3,2.8,0.7,5.1,0.8c-1.6,2.2,2.8,3.3,4.2,3.5c0.7,0.2,0.9,0,1.6-0.3s-0.3-0.6,0.1-1.1c0.6-0.6,0.2-0.5,1.9,0.1
											c1.4,0.4,0.6-1.4,1.1-2.3c0.3-0.7,1.9-0.4,1.5-1.7s-0.4-1.7-1.8-2.3c-1.1-0.5-3.1-2-1.5-2c2,0,2.6,2.2,4.3,3
											c1.3,0.6,0,0.8,0.7,1.6c0.4,0.5,2.2,0.2,2,0.3c-1.4,0.7-3.8,5.2-3.4,6.1c1,2.7,8.6-4.5,9.1-5.5c0.8-1.9,1.7-0.1,2.5-1.6
											c0.5,1.2,3.5,0.5,4.7,0.5s1.4-2.4,2.4-1.9c0.4,0.2,0.9,0.9,1.4,0.9c-1.2,1.1-2.6,2.1-4,2.9c-1.7,0.6-3.4,0.8-5.2,0.8
											c-1.6,0-2.2,1.7-0.3,2.1c-1.2,1.5-1,3.7,0.4,5c1.2-2.2,0.4-2.9,2.7-3.8c1.5-0.6,4.3-0.1,5.9-0.9c2.4-1.1,4.4-3,6.8-1.8
											c1.1,0.6,0.8,4.2,3.5,3.2c3.2-1.1,1.9,2.7,1.9,3.9c0.1,1.4,2.7,3.8,2.1,5.1c-1.8,4.2,0.3,8,4.8,9.5
											c2.1,0.8,3.4,0.3,5.4,1.4c1,0.6,1.5,0.3,1.6-0.7c0.1-1.2,0.8-1.1,1.4-2c0.4-0.6-0.3-1.7,0-2.7c0.4-1.2,3.6-6.6,2.5-8.1
											c-0.5-0.7-4.3-1.3-5.2-1.7c-2.5-1.1-4-1-4.3-3.7c-0.7-6.5,10-2.6,8.3-6.4c-0.3-0.7-3.6-1.2-3.5-1.9
											c0.1-1.4-0.1-2.1-1.7-1.8c-1,0.2-2.9-4.8-3.1-5.7s-3.1-7.2-4.4-7.9c-0.8-0.6,1.3-2.4,1.7-2.7c0.9-0.9,1.8-2.1,1.4-3.4
											c-0.4-1-0.5-3.4-1.9-3.4c-0.7,0-2.5,2.6-2.3,3.3c0.4,1.1,0.5,2.7-0.7,3.5c-1.8,1.2-1.8-0.5-3.1-1.1
											c-1-0.4-2.6,0.6-3.2,0.3s-5.1-4.5-4.9-4.1c-3.4-0.5,0.8-4.7,0.9-5.4c0.5-2.5-3.5-4.4-3.8-1.9c-0.4-0.1-0.7-0.3-1-0.5
											c0.7-1.5,0.8-2,2.3-2.6c1-0.4,1.4-1.2,0.8-2.1c-0.7-1.2-1.9-2.1-3.2-2.5c-1-0.4-2.2-0.6-2.7-1.7c1,0.1,1.8-0.4,1.8-1.4
											c1.4,0.7,2.6,1.7,3.6,2.9c1.5,1.8,1.4,2,3.6,1.5c2.5-0.6,5.2-3.2,4.2-6c-0.4-1.3-1.7-3.4-1.7-4.9c0-0.8-0.4-1.2,0.7-1.7
											c0.6-0.2,1.3,0,1.7,0.5c1,1.5,1.6,2,0.8,3.9c-0.4,0.8,0.3,3,0.7,4c0.3,0.7,0.9,0.2,1.1,1.3c0.2,0.7,0.3,1.4,0.2,2.1
											c-0.3,2-1.4,2.2-3.1,2.5c-2,0.5-1.7,1.6-1.4,3.5c0.4,2.1,1,1.8,0.1,3.9s-1.4,2.2,0.4,3.9c1.4,1.3-0.1,2.3,2,3.2
											c0.1,0,5-4.6,6.1-5.1c0.8-0.4,0.4-2.6,1.4-2.4c1.8,0.4,1.3,5.7,3.7,5.8c2.2,0,4-3.7,4.7-5.3c2.4-5,1.4-16.8-1.3-22
											c-5.2-10.1-16.4-14.7-16.7-14.5c-0.5,0.3-0.6,1.2-0.2,1.3c0.9,0.4-0.8,1.1-1.2,1.7c-2.5-2-3.5-1.9-6.8-2
											c-2.5-0.1-5.1-0.9-7.1,0.7c-0.6,0.4-1.1,1-1.4,1.7c-0.1-0.3-0.3-0.6-0.9-0.8c-0.8-0.3-2,0.8-2.4,0
											c-0.8-1.8,5.2-2.9,5.3-4.8c0.1-2.5-2.2-1.9-4.7-2c-1.4-0.1-0.6,3-1.7,3.8c-1.9,1.3-1.6-1.2-0.8-3.4
											c0.2-0.7-1.9-2.7-2.3-3.2c-1.1-1.4-8.8-6.3-8.7-7.2c0.1-1.3,0.7-2.3-0.6-2.7c-3.2-0.7-7.4,1.6-9.1-1.2
											c-1-1.5,0.9-1.8,2.8-1.8c1,0,1.9-0.5,2.4-1.3c0.7-1.2,2.1-2.2,1.5-3.5c-1-2.2,0.2-0.7,0.5-2.2c0.4-1.8,1.7-2.4-2-3.1
											c-0.9-0.2-1.7-0.5-2.5-0.9c-0.7-0.3-3.1,5.1-3.8,5.8c-2.3,2.2-4,1.3-4.9,4.7c-0.5,1.8-0.8,2.1,0.2,3.6
											c0.4,0.6,1.3,2.6-0.2,1.8c-0.9-0.5-3-1-2.7-2.1s0.4-2.9,1.1-3.9s2-0.9,1.4-2.2c-0.7-1.5-1.5,0-2.6-1.3
											c-2-2.3,2.1,0.4,2.9,0.6c1.6,0.5,2.2-1,3.1-2c2.4-2.8,7.9-5.8,5.7-8.8c-0.8-1.1-0.2-0.9-1.5-0.5c-6.3,1.8-2.9,1.1-4,0.3
											c-0.8-0.5-3.4-0.2-4.3-0.3c-1.3-0.1-2.6-0.7-1.9-1.8c1.1-1.8,6.5,0.8,5.7-2.9c-0.5-2.4-0.7-5.5-1.9-7.7
											c-3-5.2-11.9-8.9-9.6-14.4c0.9-2.3,1.9-6-0.9-4.9c-1.9,0.8-2.3,1.4-3.8,0.2l-3.7-3.5c-0.8-0.7-3.4-0.5-4.4-0.7
											c-1.5-0.2-1.4,0.8-1.9,2.1c-0.8,1.8-1.4,2.1,0.1,4.3c0.7,1.1,1.2,2.3,1.6,3.5c0.5,1.6,1.9,2.7,1.1,4.1
											c-0.7,1.2-2,0.4-1.6-0.8c0.8-2.2-1.4-5.4-3.2-6.6c-2.4-1.6-5.6-5-8.4-4c-1.1,0.4-1.3,0.7-2-0.2c-0.2-0.2-1.5-1.3-0.8-1.4
											c1-0.1,1.9-0.8,2.2-1.8c0.8-3.8-6.2-7.3-9.3-5c-1.2,0.9,1.5,3.4,0.4,4.4c-1.9,1.6-6.4,0.6-7.2-1.8
											c-0.4-0.9,1.9-1.4,1.6-2.3c-0.6-2.5-4.4-2.5-6.6-3.8c-0.6-0.3-1.6-0.6-1.4-1.3c0.4-1.1,0.9-0.2,2-0.9
											c2.4-1.6,0.6-3.5-1.7-5.1c-2.1-1.5-4.2-2.9-6.3-4.5c-1.4-1-5-1-6.7-1.3c-3-0.6-3.4-0.2-4.5-3c-0.9-2.6-3.2-2.8-5.6-3.9
											c-1.3-0.6-1.2-0.6-2.3,0.4c-0.4,0.4-1.4,1.7-1.9,1.2c-2-2-4-4-5.9-5.9c-1.3-1.3-3.9,0.6-5-0.9c-1.9-2.6,1.4-0.5,3.2-2.1
											c1-1,0.2-2.4-0.7-3c-2.9-1.9-5.7-3.8-8.5-5.6c-2.1-1.4-5.4-0.9-7.8-1.1c-3.4-0.2-5,2.6-7.9,0.9c-1.7-1,0.6-3.3-1.5-3.4
											s-4.8-2-6.2-0.5c-0.8,0.9,1.7,4.5,0.4,5.1c-0.5,0.2-2.5,0.7-2.6,1.2s-0.5,2.4-0.2,2.5c4.2,1.4,7.4-0.3,11.9,0.6
											c1.9,0.4-0.8,2.4-1.9,3.4c-1.2,1.2,0.8,2.1,0.1,3.6s-3.8,1.6-5.5,1.3c-2.9-0.7-5-0.6-3.8,2.1c2.7,6.1-0.9,11.6,3,15
											c0.8,0.7,3-1.3,3.6,0.5c0.2,0.5-0.9,1.7-0.4,2.1c0.7,0.5,1.3,1.1,2,1.6c1.7,1.4,1.9,1.4,0.5,3.1c-1.1,1.3-2.4,2.4-3.9,3.2
											c-1.4,0.6-3.1,1.8-4.2,2.4s0.5,1.5,0.3,2.3s-2.2,2-2.8,2.5c-0.9,0.8,0.5,1.4,0.5,2.5c-0.2,0.9-0.6,1.8-1,2.6
											c-0.9,2.3-4,4.6-2.8,6.7c1.8,3.2,6.4-2.2,9.5-4.2c1.7-1.1,3.4-2.1,5.1-3.2c0.9-0.6,1.1-2.9,1.6-3.9C71.6,4.4,72-7,73-8.9
											c0.7-1.4,0.4-3.5,1.6-4.5c0.8-0.6,3.1,1.2,1.5,2.6s-1.9,1.3-1.6,3.4c0.3,2.3,0,2.5,2.3,2.8c1.3,0.2,1.6-2.6,2.8-2.4
											c3.5,0.5,2.9,7.1,0.1,9c-2.3,1.6-5-0.9-4.1,1.8s0.9,4.3,3.6,5.2C80.3,9.2,80,7.4,81,6.5c0.7-0.7,2.1,0.6,2.7,1.5
											c0.5,1,1.1,1.9,1.9,2.7c0.8,0.7,5.3,3.7,5,4.7c-1.3,4.9,1,10.8-2.6,14.4c-1,1-3.7,1.1-4.3-0.2c-0.7-1.6-1-3.1-2.1-2.5
											c-1.9,1-3.8,1.9-5.8,2.9s-5.8,4.4-6.6,6.4c-1.3,3.4-3.2,6.8-3.5,10.4c-0.2,2.2-1.1,5,3.4,7.9c1,0.7-0.1,2.1-0.4,3.2
											c-0.1,0.5,0.4,0.8,0,1.2s-1.2,0.7-1.3,1c-0.4,1.1,1.1,2.4,0.5,3.6c-0.6,1.5-0.4,1-2,1.9c-1,0.6-2.2,0.9-3.4,0.9
											c-1.3,0-1.9,1.6-2.5,2.5c-1.4,2-0.2,4.4,1.7,5.4c0.8,0.4,3.7-1.6,4.4-2.5s-0.7-2.8,1.5-2.9c1.1-0.1,2,1.4,2.6,0.3
											s1.1-3.2,2.5-2.8c1.1,0.3,1.4,2,1.7,2.9c1.2,3.1,2.2-1.7,3.3-2.5c1.3-0.9,2.2,2.2,2.1,3.6c-0.1,2.7,0.3,3-2.2,4
											c-2.9,1.3-1.3-1-1.9-2.3c-0.3-0.5-1.5-0.9-2.6-1.3c-0.8-0.3-1.6,0.1-1.9,0.9c-0.2,0.4-0.1,0.9,0.2,1.3
											c0.3,0.6,0.6,1.2,0.8,1.8c0.4,1.5,0.4,3.4-1.2,4.1s-2.2,2.4-7.7,6.2c-2,1.4-3,1.4-3.7,3.6c-0.4,2.1-0.7,4.1-0.8,6.2
											c-0.2,1.8,1.3,4.8,1.9,6.5c0.6,2.1,1.7,2.8,3.2,4.4c0.8,0.8,1.7,1.4,1.9,2.6c0.1,0.7,0.5,1.4,1.1,1.8c1.7,1,1-2.7,3.9,0.3
											c0.2,0.2,0.4,0.5,0.6,0.8c2.1,4.9-3.3,6.3-6.7,7.8c-2.9,1.2-7.6,6.1-6,9.8c0.4,0.9,1.6,0.9,1.9,2c0.2,0.7,0.2,2.6,0.8,3.1
											c2,2,2.8-0.8,4.3-1.4c2.2-1,4.4-1.8,6.7-2.3c0.4-0.1,0.6-2,1.3-1.2c0.4,0.4-0.3,1.4-0.5,1.8c-0.9,2.1-1.3,4.7-3.1,6.1
											s-3.5,1.7-5.5,2.7c-2.6,1.4-9,9.4-9.7,10.5c-1.1,1.6-1.6,2-2.8,2.2c-1,0.2-1.8,1.1-1.9,2.2c-0.1,1.2-0.2,2.4-0.3,3.7
											C49.5,158.9,52.6,160,53.1,160L53.1,160z M226.7,135.2c2-0.8,1.1,0.3-0.4,1.7C226.4,136.3,226.5,135.3,226.7,135.2
											L226.7,135.2z M224.6,82.2c-1.1,0.6-1,3-2.3,3.3c-0.7,0.2-3.7,0.6-3.7-0.8c0-0.7,2.2-1.5,2.8-1.8
											c-1.6-0.6-4.5-0.2-4.7-1.9s0.9-2.8,1.2-3.6c0.2,2.8,8.6,4,10.4,4.3C227.7,83.3,225.7,81.6,224.6,82.2L224.6,82.2z
											 M189.6,127.5c-0.7-0.3-4.4-1.7-2.4-2.9c2.3-1.3,3.1-1.3,5.8-1c1.4,0.1,2.1-2.1,3.4-2.6c1.9-0.7,0.8,4.6,3.3,4.4
											c1.6-0.1,3.2-2,2.3-3.4c1.5-0.5,2,0,2.4,1.3c0.3,0.6,0.5,1.3,0.6,2c0,0.3-0.9,0.6-0.9,1c-0.1,2.8,2,3,0.1,5.5
											c-0.9,1.3-3.6,2.1-4.7,0.3c-1.5-2.6-1.8-4-4.8-4.4C192.6,127.4,191.5,128.2,189.6,127.5L189.6,127.5z M160,166
											c1.5-1.5,3.1-2.9,4.9-4c1.3-0.9,2.8-0.3,3.8-1.1c1.2-0.9,1.6-3.3,2.7-3.2c3.7,0.1,5.5-0.7,8.3-3c8.1-6.6,6.6-0.7,3.4,2.9
											c-2.3,2.6-13.8,4.9-16.3,6.9c-1.3,1-1.7,2.8-3.4,3.2c-0.7,0.1-1.4,0.3-2.2,0.5c-0.7,0.1-1.4-0.4-1.6-1.1
											C159.6,166.7,159.7,166.3,160,166z M169.4,117.9c-1.1-0.5-1.9-0.8-1.1-2.2c1.2-2,1.9,2,3.1,1.5c1.8-0.7,3.6-1.7,5.1-3
											c1.3-0.9,0.5-2.1-0.6-4c-0.3-0.5,1.2-3,1.6-2.8c1,0.4,2,1.1,2.7,1.9c1.6,1.5,2.1,3.8,1.5,5.9c-0.3,0.8-1.2-0.3-1.6,0.1
											c-0.4,0.6-0.7,1.3-0.9,2c-0.5,1.1-1.7,1.2-2.7,1.6c-1.6,0.6-6.4,1.2-5.2,2.9c1,1.4,1.8,0.4,1.6,1.9s-0.4,1.4-2.1,1.8
											c-0.8,0.2-6.1,1-5.2-1c0.3-0.7,0.1-2.7,0.5-3.2c0.5-0.6,2.6,0.1,3-0.8C169.6,119.4,170.6,118.5,169.4,117.9L169.4,117.9z"
											/>
										<path class="st5" d="M15.2,139.2c-1.1-1.4-4.2,0.7-3.1-1.6s2.9-1.3,4.9,0.2c0.5,0.3,1.4,1.5,0.8,1.9
											C16.4,140.8,16.3,140.6,15.2,139.2z"/>
										<path class="st5" d="M36.1,160.3c-1.9,0.6-3.9-0.2-4-1.5c-0.4,0.5-1,0.7-1.6,0.6c-0.9-0.2-1.3-1.2-1.9-1.9
											c-0.3-0.3-1.1-0.1-1.6-0.3c0.2,0.3,0.3,0.8,0.2,1.2c-0.3,2.2-4.4,2.2-4.6,0c-0.1-0.5,0.1-0.9,0.4-1.3
											c-1.9-0.5-3.5-2.2-2.4-4c1.1-1.9,6.8,1.6,5.5,3.3l0.4,0.2c-0.4-0.7,0.2-1.2,0.8-1.6s2.2,0,2.3,0.7c0.1,0.5-1.2,0.9-1,1.4
											c0.9,1.8,3.5-0.2,3.7,0.8l0.1-0.3c1.1-1.8,4.3-0.9,6.3-0.6c2.6,0.4,5.2,1,7.8,1.5c1.6,0.3,1.7,0.3,2.5,1.6
											c0.5,0.8,0,1.9-1.1,1.7c-2.5-0.4-4.8-2-7.3-1.5C38.5,161,37.8,159.8,36.1,160.3L36.1,160.3z"/>
										<path class="st5" d="M19.6,156.1c-0.5,1.3-1.9,0.7-2.4-0.1c-1.2-1.9-3.6-1.4-3.7-3.6c-0.1-2.1,3.6-1.3,4.7,0.8
											C18.4,153.6,19.7,155.6,19.6,156.1z"/>
										<path class="st5" d="M-17.5,124.4c2.4,1-3.5,1.1-3.2,2.8c0.3,1.7,0.5,1.6,1.1,2.5c0.9,1.3,3.7,1.5,2.7,3.2
											c-0.8,1.3-2.8,0.1-3.9-0.8c-1.6-1.4,0.9-3.1-0.8-4.1c-0.8-0.5-1.5,0.8-1.7-0.1C-23.8,125.1-20,123.3-17.5,124.4z"/>
										<path class="st5" d="M18.4,134.8c-1-1.9-0.6-2.4,1.1-3.5c0.4-0.2,0.9,0.3,1.2-0.1c0.5-0.6,0.8-2.2,1.6-1.9
											s0.4,3.4-0.1,4.2C21.6,134.5,19,135.8,18.4,134.8z"/>
										<path class="st5" d="M27.9,144c-1.1-0.5-3,6-4.8,4.2s2.1-5.8,3.4-6.8c0.6-0.5-1-2.3-1.3-3c-0.2-0.4,1-0.8,1.2-1
											c0.5-0.3,0.7,0.5,1,0.9c1.8,2.6,4.5,0.3,1.6-1.2c-3.5-1.9-7.5-0.8-5.8-4.4c1-2.4,2.1-0.4,3.3,1.8c0.7,1.2,2.7,0.3,3.6,0.5
											c1.2,0.2,7.6,1.6,6.6-2.2c-0.6-2.2-5.8,1.2-5.4-1c0.1-0.4-0.8,0.4-1.4,0.2c-1.8-0.9,0.1-3.1,1.5-4.1
											c11.7-7.9,13.9-12,14.1-12.5c0.8-1.8,1.5-1.8,3.4-1.5c1.2,0.2,2,1.3,1.9,2.5c0,0.1,0,0.2-0.1,0.3
											c-0.5,1.2-5.2,4.6-6.9,9.5c-0.8,2.2-0.6,8,0.3,10.8c0.5,1.6,4.5,2.5,5,5.6c0.3,2.2-2.5,5.8-3,6.4
											c-1.9,2.4-1.5,1.5-4.5,1.1c-1.7-0.3-2.4,0.4-4.5,1.4c-0.8,0.4-1.7-0.8-2.2-1.4c-1.3-1.9-2.5-1.4-1.6-3.4
											c0.3-0.7-2.3-0.2-2.6,0c-2.1,1.2-1,1.8-1.8,3.7c-0.4,0.8-2.9-0.3-2.7-1.1C26.9,147.3,29.5,144.7,27.9,144L27.9,144z"/>
										<path class="st5" d="M65,110.5c2.3,0.7,2.2,5.2-0.7,4.2c-1-0.4-1.6-1.4-1.7-2.4C63.1,110.2,63,109.9,65,110.5z"/>
										<path class="st5" d="M51.6,100.9c-1.6-0.2,0.5-4.4,1.3-6.6s3.3-3.3,3.6,1.4C56.8,98.8,53.8,101.2,51.6,100.9z"/>
										<path class="st5" d="M51.2,77.8c-2.2,1-2.5-1.4-1.9-2.9c1.7-4,11.7,0,6.7,1.3C54.3,76.6,52.7,77.1,51.2,77.8z"/>
										<path class="st5" d="M47.9,72.3c-2.8-1.2-2.2-3.5,0.5-5C50.8,66,50.4,73.5,47.9,72.3z"/>
										<path class="st5" d="M43.3,62.8c-0.7-0.3-0.9-2.3-1.1-3c-0.7-2.3,1.6-3.8,3-5.6c0.4-0.5,1.6-1.7,1.3-2.3
											c-0.7-1.3-1-1.2,0.3-2c1.7-1.2,4.7-4.3,5.8-1.2c1,2.9-0.5,2.6-1.6,4.6c-0.5,1-2.5,2.9,0.7,4.8c1.7,1.1-0.7,3.7,0.4,5.5
											c1.9,3.4,5.1,6.9,2.1,7c-2.8,0.2-2-2.7-4-4c-1.5-1-5.5,1.9-4.9-1.8C45.4,63.2,44.6,63.3,43.3,62.8L43.3,62.8z"/>
										<path class="st5" d="M49.8,27.9c0.1-0.5,0.2-1.3,0.6-1.4c2.3-0.4,3.2,4.6,1.1,5.4c0.2,0.3,0.3,0.6,0.4,0.9
											c0.2,1.7,0.6,3.5,1.1,5.2c0.9,2.2,5-1.7,6.8-2.2c-0.2-0.6-0.2-1.1-0.2-1.7c0.2-1.9,7.8-2.5,6.2-6.3
											c-1.2-2.8,4.3-4.2,6.7-5.6c2.8-1.7,6.6-7.3,8.8-4.8c1,1.1-1,3.5-1.9,4.7c-1.2,1.4-3.7,2.5-5.2,3.5
											c-2.9,1.9-4.1,4.9-6.7,7.1c-1.1,0.9-4.6,4.2-6.5,4.1c0.3,1.5-2.2,3.3-2.9,5.1c-0.8,1.9,1.5,4-0.9,5.3c-1.7,1-5,3-4.7-0.8
											c0.1-1.2,4.1-0.9,3.8-2.3s-3.1,0.3-4.1,0.2c-3.3-0.5-1.9-1.8-2-5.2c0-1-1-5.9,0-7.3C49.3,31,49.7,29.3,49.8,27.9
											L49.8,27.9z"/>
										<path class="st5" d="M52.4,19c1.6-1.6,3.2,1.6,2.1,3.1c0.6,0.8,0.2,2.5-1.1,3.5c-1.9,1.6-1.8-2.5-0.8-3.5
											C51.9,21.2,51.7,19.6,52.4,19z"/>
										<path class="st5" d="M52.4-38.5C51.5-39,50-38,49.5-38.8c-1.1-2.1,1.7-4.6,4.5-2.4C56.3-39.5,55.2-36.9,52.4-38.5z"/>
										<path class="st5" d="M128.1,198.8c1.8,0.3,1,7.2,1.2,8.9c0.2,2,5.5,2.1,3.9,5.4c-0.7,1.5-1.5,3-2.2,4.5
											c-0.5,0.9,1.4,2.7,1,3.6c-0.8,1.3-1.5,2.7-2.1,4.1c-0.6,2-1.9,5.3-5.2,0.6c-1.3-1.9-1.6-3.5-0.3-5.4
											c1-1.4-0.7-7.5-0.9-9.3c-0.2-1.5-0.4-1.5,1-2.1c1.7-0.7-1-2.5-1-2.5C121.1,206.7,125.2,198.2,128.1,198.8L128.1,198.8z"/>
										<path class="st5" d="M287.2,118.4c-1.4,0.7-5.1-0.1-6.1-1.2c-1.5-1.7-3.7-4.4-2.6-6.8c0.7-1.7,1.2-1.6,3-2.1
											c2.1-0.7,0.7,0.8,1.8,1.6c1,0.6,1.6-0.8,2.9,0.3c0.6,0.9,1.1,1.9,1.4,3c0.6-1.2-0.2-2,1.8-2.2c1.1-0.1,3,2.3,2.8,3.5
											c-0.4,2-3-0.3-2.2,1.7c0.4,1-0.6,1.1-1.3,0.8C287.6,116.4,288.3,117.8,287.2,118.4z"/>
										<path class="st5" d="M212.6,56.9c-1.3-0.5-4,1.6-4.1-1s0.9-2.9,2.4-4.6c0.7-0.8,0.1-1.4,0.3-3.8c0.1-1.3,2.1-3.8,1.3-4.9
											c-1.2-1.5-2.3-3.1-3.2-4.8c-0.6-1.1-2.7-1.7-2.2-2.7c1.2-2.8,2.4-4.9,4.1-2.4c2.6,3.9,5.2,4,5.9,7.1
											c0.6,2.7-0.9,3.9-1.1,6c-0.1,1.8,1.4,2.8,0.9,4.6s-0.1,2.3,0.3,4.7C217.6,57.6,214.5,57.6,212.6,56.9L212.6,56.9z"/>
										<path class="st5" d="M98.7,149.7c-0.4,0.7-0.8,1.4-1.2,2.1c-0.1,0.4,1,0.1,0.6,0.6s-0.6,1-1,1.5c-1.3,2.1-2.6,1.3-3.8-0.4
											c-0.9-1.2,0.6-3,1.6-4.1C95.2,148.9,99.8,147.5,98.7,149.7L98.7,149.7z"/>
										<path class="st5" d="M342.2,238.9c-2,1.3-5.1-0.1-3.8-2.1C339.1,235.7,344.7,237.4,342.2,238.9z"/>
										<path class="st5" d="M323.8,160c1.5,0.4,1.2,2.8,1.8,4.3c0.3,0.8,2,3.5,1.8,4.3c-0.7,2.7-7.9,1-9.6,0.9
											c-1.5-0.1,0-6.5,2-5.3c0.6,0.4,3.6,1.8,2.8-0.2C321.6,161.4,321.2,159.3,323.8,160L323.8,160z"/>
										<path class="st5" d="M400.3,112.1c-1.1,2.1-1.6,3.5-3.4,3.4c-1.5-0.1-4.4-3.2-5.9-3.5c-9.1-1.8-8.8-6.4-6.9-7.5
											c2.9-1.6,2.5,0.4,5,0.3c2-0.1,1.3-1.6,3-3s6.6,4.2,9.8,3.3c3.5-1,6.9,2.9,6.1,4.9C406.6,113.4,401.8,109.3,400.3,112.1
											L400.3,112.1z"/>
										<path class="st5" d="M395,98.8c-2.8,0.6-2.5-0.8-5.4-0.5c-1.9,0.2-0.7-1.7-0.2-2.8c0.4-0.9,3.4-1.5,5.1-0.4
											C397.4,96.9,396.5,98.4,395,98.8z"/>
										<path class="st5" d="M382.6,98.3c-0.1,0.8-0.9,1.8-1.7,1.8c-1.7-0.1-3.1-2.8-1.8-4.5c1.6-2.1,5.2-1.7,5.1,0.2
											C384.1,97.4,383,96.5,382.6,98.3z"/>
										<path class="st5" d="M371.1,99.7c0.4-1.3,4.5-3,5.3-4.8c2.4-5.3-2.4-9.2-2.8-9.3c-2.3-0.3-2.6,1-4.7-0.9
											c-1.4-1.3,0.9-1.9-1-2.6c-1.4-0.5-2.7,0.3-4,0.6c-1.6,0.5-1.6-0.5-2.5-2c-0.8-1.3-1.1-1.1-2.7-1.2
											c-5.1-0.4-12.1-5.1-15.2-1c-1.4,1.8,0.8,2.2,2.9,3.1c1.1,0.5,4.3,1,3.6,1.9s-3.1-1.6-3.6-0.5c-1.2,2.5,3.9,3.9,5.8,5.8
											c1.6,1.7,3.4,1.8,5.7,2.3s-4.1,1.4-1.8,3c1.1,0.7,2.3,1.1,2.7,2.3c0.3,1.1,1.6,0.6,1.8,1.9c0.1,0.7-1.8,0.1-2,0.8
											s1.9,3,2.5,2.9c1.2-0.3,2.5-0.8,3.7-0.4c3,1,8.1,3,8.2-0.3C373.4,100.8,370.9,100.4,371.1,99.7L371.1,99.7z M367,90.1
											c-1.2,0-2.4,0.1-3.6,0.4c-0.9,0.2-4.2-4.3-2.7-4.5c3.1-0.3,3.7,3.7,8,1c0.8-0.5,2.1-0.1,2.2,0.5
											C371.2,89,368.5,89.8,367,90.1z"/>
										<path class="st5" d="M281.2,337.3c0.6-0.7,1.5-1,2.4-0.7c1.4,0.8,0.9,5.2-1.4,5.8C278.7,343.1,280.4,338.2,281.2,337.3z"
											/>
										<path class="st5" d="M257.5,256.9c0,1.7,2,4.5,2.7,6.1c1.1,2.5,1.5,2.4-0.6,4.3c-1.2,1-1.7,4.4-2.3,5.8
											c-1.2,3.3-2.6,8.7,1.3,10.4c2.2,1,2.8,2.3,4.1,4.4c1.5,2.4,2.1,2.5,1.1,5c-1.4,3.6-1.7,7.6-0.9,11.4
											c0.3,1.9,1.5,3.9,2.2,5.7c0.8,2,3.9-0.3,4.2,1.8c0.3,1.4-2.6,1.2-3.8,1.9c-0.9,0.5-0.2,2.3-0.1,3.2c0.4,3.1,3,2.4,3.9,5.5
											c0.2,0.5-2.2,3-2,3.3c0.9,0.9,3.2,2.1,2.3,3.2c-2.1,2.6-1.9,5.5-2.2,8.7c-0.2,3-2,2.3-2.9,5.9c-0.3,1.2-0.2,4.6-0.7,5.8
											c-2.2,6.5-7.4,1.6-9.1,2.6c-1.5,0.9,1.4,2.4,3.7,3.6c1.1,0.6,8.1,0.1,9.3-0.6c2-1.2,10.7-6.8,10.8-10
											c0.1-2.5-0.8-5.2-0.1-7.3c0.8-3,2.2-4.1,5.3-4.4c1.8-0.2,3.1-4.4,3.8-5.9c4.9-10.1,9.8-20.1,14.8-30.2
											c1.5-3.1,4.4-2.4,7.7-3c1.3-0.2,4.4-0.1,5.5-1c1.5-1.2,3-2.3,4.5-3.5c3.9-3,7.8-6.1,11.7-9.1c2.2-1.7-0.8-3.7-0.2-4.8
											c0.3-0.6,2.3-0.2,2.1-1.1c-0.1-0.9,0-1.9,0.4-2.7c0.6-1.6-1.9-2.8-1.8-4.5c0-1.6-0.6-5,0.2-6.4s1.7-4.6,3.4-5.2
											c2.7-1,1,2.1,2,3.4c4.3,5.3,7.6,5.5,11.8-1.2c2.5-3.9,4.9-2.8,8.7-3.6c2.2-0.5,4-1,6.2-1.6c2.8-0.8,1.8,2.1,3.8,2.1
											c2.3,0,5.1,0.4,7.3-0.2c2-0.5,4.2-2.1,6-3c2.5-1.2,2.7-1.5,3.8-4.1c0.4-1.3,1.3-2.5,2.5-3.4c2.4-1.9,4.9-3.9,7.3-5.9
											c1.1-0.9,3.3-2,4.1-3.3c0.6-0.8,0.2-2.6,0.9-3.3c0.2-0.2,1.8-1.2,1.5-0.3c-0.5,2-1.5,3.9-2.9,5.4c-2.8,3.3-4,9.5-2.4,9
											c1-0.4,1.4-2.3,1.8-3.2c1-1.5,2.1-2.9,3.4-4.2c2.1-2.2,4.2-4.5,6-6.9c0.5-0.8,1-2.9,1.9-3.4s9.8-37.4,13.2-38.7
											c2.5-0.9,6.8-11,7.1-11.6c1-2.3,1.2-7.9,4.2-9c0.1-0.1,0.3,0,0.3,0.1c0,0,0,0,0,0c0.5,1.2-1.5,4.9-0.2,5.2
											c1.6,0.4,1.8-4.9,3.1-5.9s4.6-1.4,6.3-1.6c1.4-0.2,1.8-2.5,5.1-2.6c1.9-0.1,5.7,1.2,7.2,0.6c2.9-1.1,8.7,5,11.2-0.9
											c2.6-6.2,0.2-16.2-0.5-16.9c-1.9-1.5-0.5-3.1,2-3.4c2.1-0.2,2.7,0.1,3-1.8c1.1-6.7-9.4-11.6-13.1-14.2
											c-2.6-1.8-5.4,1.2-8.7,0.7c-3.1-0.4-6.2,0.4-8.8,2.2c-8.7,5.9-22.1-0.1-22.9,1.5c-0.2,0.3-1.5-0.3-0.7-0.7
											c0.6-0.3,0.8-1,0.6-1.6c-1.5-3.5-4.5-0.1-7.5,1.4c-2.2,1.1-5.1-0.4-6.6,1.6c-2.3,3,0.6,3.7-3,2.9
											c-0.6-0.1-12.3-8.8-25.1-6.4c-2,0.4-7.8-0.1-8.1-2c-0.3-1.7,0.7-4.2-0.8-5c-1-0.6-4.8,1.3-5,2.5c-0.2,0.9-0.1,4.5-1.2,5.4
											c-2.5,2.1-0.6-9.6,1.2-10.5c1.1-0.5,2.5-1.5,3.7-1.6c4.2-0.2,7.7,2.3,10.2,1.7c1.7-0.4,5-3.1,5.3-4.8
											c0.5-2.5-4.1-9.6-2.5-9.9c1.1-0.2,4-0.7,3.6-2.6c-0.4-2.1-6.6-1-7.1-0.1c-2.2,4-2.8,4.3-7.2,2.9c-0.8-0.3-2.1-2.2-2.8-2
											c-1.5,0.4-3.9-0.2-4.5,1.2s1.1,3.8,2.6,3.9s2.8,3.2,1.3,2.3s-10.9-2.7-13,0.3c-1.5,2.2-0.6,5.8-1.5,6.6
											c-1.4,1.4-7.9,9.8-5.6,10.3c1.7,0.5,2.6-3.6,4.2-3.1s0.9,1.8-0.5,2.8l-3.8,2.5c-0.9,0.6,1.1,5.6,1.4,6.7
											c0.2,0.9,6-0.6,7.1-0.8c1.5-0.3,3-4.5,4.6-4.4c0.8,0,3.3,4,4.3,2.8c0.5-0.6,0.6-1.3,1-1.4c0.7-0.2,1.4,0.5,2.9,0.5
											c1.7-0.1,19.2,18.8,11.6,24.2c-1.3,0.9-8.6,4.4-10.3,4.4c-1.4,0-6.1-0.8-7.1,0s0.2,3.3-0.7,4.2c-1.5,1.6-2.5-1.4-1.7-3.4
											c0.8-2.2-2.9-1.2-3.1-3.2c-0.2-2.7-2.3-7.9-3.1-10.5c-3.4-11.6-16.2-3-17.3-1.1c-0.7,1.1-1.5,3.2-2.6,3.8l-6.7,3.4
											c-0.8,0.4-2.3,3.2-1.6,3.7c1.4,1.1,4.1,2.4,4.7,4.1c1,2.7,0.7,3.2,3.4,3.7c1.9,0.3,3.8,0.8,5.6,1.4
											c1.5,0.6,3.9,3.2,2.8,4.1c-0.9,0.8-3.3-3.1-4.4-3.1c-2.2,0-1.4,2.9-1.8,4.2s-1.8,4.1-3.6,2c-0.4-0.5-0.6-1.1-0.6-1.6
											c-0.2-0.5-1.4-1.4-1.9-1c-0.9,0.7-0.2,4,0.4,4.9c0.9,1.3,2.1,2.3,3.5,3c0.8,0.4,2.3,2.1,3.2,1.8s-1.6-2.5,0.1-3.6
											c1.9-1.3,3.4,3.6,4.2,5c0.7,1.1-1.2,1.9-0.7,5.1c0.5,2.9,5.1,3.6,6.2,5.3c0.9,1.3,3.9,14,4.4,14.8c1.9,2.6,2.7,5.8,2.4,9
											c-0.1,1.2-1.3,2.5-2.1,3.4c-1.7,1.7-1.6,1.3-1.2,3.8c0.4,2.1,0.6,2,2.6,2.8c0.5,0.2,2.3-2.5,2.7-3c0.7-0.8,0.4-7.9,4-5.9
											c1.1,0.6,14.3,1,16.6,11.8c0.5,2.4,0.4,4.9-0.2,7.3c-0.8,3.6-1.5,4.7-3.9,7.6c-1.8,2.1-5.1,0.4-7-0.9
											c-0.6-0.4-2.5-6.1-3-6.4c-1.6-1.2-1.6-1.5-3.4-0.9c-1.4,0.5-0.7,1.9-0.5,3.3c0.2,2.4,1.8,4.9,0.8,7
											c-0.8,1.9-3.6-0.5-5.4-1.3c-1.6-0.8-5,3.9-5.2,5.6s-7.7,0.2-10.2-1.8c-2.2-1.8-8.1-6.4-10.5-7.3s-3.1,1.4-5.7,1.1
											c-1.9-0.3-6.6-3.1-7.1-2.1c-0.5,1.2-2.6,1.5-3.6,1.6c-2,0.4-4,1-5.9,1.7c-0.8,0.3-1,0.2-1.8,0.5c-1.4,0.5-0.9-0.5-2-1.3
											c-1.6-1.2-3-0.5-4.8-0.2c-2.3,0.4-3.4-0.4-4.5,1.7c-1.3,2.4,0.7,4.3-1.5,5.9c-1.3,1.1-3.2-1.2-4.8-1.6
											c-4.1-0.9-8.2-1.4-12.4-1.3c-2.2,0.1-10.6-0.7-11.4,1.2C259.2,252.2,257.4,255,257.5,256.9L257.5,256.9z M321,270.7
											c0,0.1,0,0.1-0.1,0.1C320.9,270.7,321,270.7,321,270.7z"/>
										<path class="st5" d="M262.4,126.3c-0.4,0.2-0.8-0.8-1.3-0.7c-0.7,0.2-1.3,1.6-0.8,1.9c1,0.7,3.2,0.2,3.5,0.9
											c0.6,1.1-0.7,1.8,0.7,2.3s1.3,0.4,0.8,1.9c-0.4,0.5-0.8,1-1.2,1.5c0,0.7,1.5,1.5,1.5,2.2c-0.1,1.8-2.8,1.6-3.7,0.6
											c-0.6-0.6-3.1-3.1-2.9-3.8c0.2-1,1-4.1,0.2-5.1c-1.2-1.8-4.2,1-2.5,2.1c0.8,0.5,1.8,4.4,0.8,5.3c-0.7,0.6-2-1.6-2.5-0.8
											c-1,1.3,3.6,2.5,2.9,3.9c-1.4,3-3.6-1-5.8-3.5c-1.6-1.8-6.6-1.2-4.5-3.9c0.2-0.3,0.9,0.2,1-0.1c1.3-3.9,2.7-3.3,3.6-4.1
											c1.1-1,2.2-1.9,3.4-2.9c1.4-1.2,1-2.2,1.6-3.5c0.8-1.8,1.6,0.8,2.7,0.2c0.4-0.2-1-3.4,1.4-2.7c0.8,0.9,1.3,1.9,1.7,3
											C262.8,122.9,263.9,125.4,262.4,126.3L262.4,126.3z"/>
										<path class="st5" d="M227.2,104.3c0.7-0.8,2.9-0.2,2.5,1.1C229.3,107,227.2,105.6,227.2,104.3z"/>
										<path class="st5" d="M228.4,150.5c-1.4-0.1-1.6-0.4-2.1-1.7c0.1-1.2,0.6-2.3,1.2-3.3c1.1-0.5,1.9,0.9,2.5,1.5
											S228.8,149.9,228.4,150.5z"/>
										<path class="st5" d="M229.9,141.7c0.9,0.1,1.5,2.8,0.5,3.7c-1.7,1.5-2.4-0.8-1.6-2C229.2,142.8,229.3,141.7,229.9,141.7
											L229.9,141.7z"/>
										<path class="st5" d="M237.2,118c-0.5-0.9,1.8-3.2,2.6-1.4C241,119.2,238.1,119.6,237.2,118z"/>
										<path class="st5" d="M232.1,106.8c1.2,2.2,1.2,2.1-0.6,3.8C230.6,108.5,230.5,108.5,232.1,106.8z"/>
										<path class="st5" d="M199.6,146.4c-0.6-0.9-0.5-1.4,0.4-1.8c0.5-0.2,0.8,0.6,1.3,0.9c1.1,0.5,4.4,0.1,2.9,1.7
											S201.7,147.4,199.6,146.4L199.6,146.4z"/>
										<path class="st5" d="M210.8,364.7c0,0,3.4-18.7-42.8-37.6c-25.4-10.3-33.4-22.7-49.3-28.4c-36.3-12.9-60.9-0.5-60.9-0.5
											L210.8,364.7z"/>
										
											<rect x="-462.3" y="-309.7" transform="matrix(0.3987 -0.9171 0.9171 0.3987 -144.1613 -265.069)" class="st4" width="376.1" height="574.2"/>
										<path class="st5" d="M-500.2-68.3c2.1-0.6,3.1-0.8,4.6-2.3c0.3-0.3,1.7-1.2,1.4-1.6c-0.6-0.7-1.1-0.8-0.4-1.5
											c0.4-0.4,1.4-1.6,1.9-1.7s1.7,1.2,2.1,0.6c1.6-2.2,5.9-3.6,8.6-3c1.7,0.4,3.5-0.2,5.2-0.6c1.1-0.2,2.2,2.6,2.8,3.5
											c0.4,0.7,2.2,2,2.8,0.7c0.7-1.6,0.9-4,2.8-3.4c1.7,0.5,3,1.6,3.7,3.2c1.1,1.8-3.7,0.6-3.9,0.9c-1.1,1.4,1.3,1.6,0.2,3
											c-0.6,0.8-2.9,2.8-2.5,0.3c0.2-1.5,0.4-3.3-1-1.3c-0.9,1.4-1.6,1.3-3.2,1.8s-3.4,1-5,1.5c-1,0.3-1.6,2.7-2,3.6
											c-0.2,0.6-3,1.8-3.5,1.4c-1.1-0.5-2.4-0.7-3.2-1.6c-0.6-0.7-0.6-3.7-1.5-4c-1.7-0.7-2.8-0.6-3.7,1.1
											c-1.1,1.9-1,2.4-3.1,2.5s-3.5,0.7-5-0.8C-503.6-67-500.7-68-500.2-68.3L-500.2-68.3z"/>
										<path class="st5" d="M-177.2-91.1c1.3,2.2,3.6,3.6,5.4,5.4c1.2,1.2,1.5,5.3,2,7.1c0.3,1.2-1.7,5.9-0.6,6.5
											c2.6,1.4,2.1-1.5,4.9-2c2.3-0.4,4.2,1.5,5.9-0.5c1-1.1,2-2.3,3.1-3.4c0.5-0.6-0.2-1.9,0.3-2.4c1.4-1.6,3.9-4.5,3.4-7
											s-3.8-5.9-1.9-7.8c1.6-1.6,5.2,1.3,5.3-1c0-1.3-3-0.6-3.6-1.8c-1.4-2.8,3.7,1.2,5.1,0.4c1.1-0.7-0.8-4.7,0.1-5.6
											c1.3-1.3,3-4.1,4.7-4.8c2.2-1,4-2.6,6.1-1.4c2.3,1.3,2.8,3,5.2,1.7c0.6-0.3,1.2-0.6,1.7-1c0.2-0.2-0.3-1.3,0-1.5
											c0.8-0.8,5.5-6,2.9-7.9c-1.9-1.3-6.3-0.1-4.8-3.1s-3.5-2.1-4.5-4.4c-1.1-2.9-3.6-5.1-6.7-5.6c-1.5-0.4-1.8,2.2-3.3,1.6
											c-2.2-1,0.1-1.5-1.2-3.4c-1.1-1.6-3.5-0.8-5.2,0c-2.3,1.1-4.7,0.5-3.4-1.7c0.5-0.9,2.2,0.9,3,0.2c2.1-1.9-0.5-5.9-3-4.6
											c-2.2,1.1-3.4,2.8-4,1.3c-1.7-3.7-4.8-4.5-7.1-5c-2-0.5-4.1-0.9-6.1-1.4c-0.9-0.2-4.4,1.4-4.3,2.4c0,0.1,0.1,0.3,0.1,0.4
											c-0.3,0-0.6,0.1-1.1,0.6c-1,0.8,1.2,3.4,0.1,3.6c-3.3,0.6-1.8-3.4-4.9-5.1c-3-1.6-5-3.4-6.1-0.3c-1,2.6,2.4,5.1,3.6,7.6
											s4.8,3.8,2.4,5.4c-6.1,3.9-5.5,18.9-6.3,22c-0.2,1,2.9,2.7,3.3,3.8c0.7,1.9,1,4.2,2.8,5c0.6,0.2,5.3,1.6,5.2,1.6
											c-2.1,0.3,0.6,4.2,1.7,6L-177.2-91.1z M-168.6-135.9c-2.5,1.8-4.1-0.1-6.7-1.8c-1-0.8-1.6-1.9-1.9-3.1c1.2,1,4,1,5.6,1.7
											C-169.5-138-166.7-137.2-168.6-135.9z"/>
										<path class="st5" d="M-152.4-92.2c-0.8-2.2,1.3-4.6,3.4-2.3C-147.5-92.9-151.8-90.4-152.4-92.2z"/>
										<path class="st5" d="M-507.9-36.7c0.1-0.4-0.7-0.7-0.7-1.1c-0.1-2.8,3.7-4.2,5.5-6.4c0.6-0.7,2.4-0.1,3.2-0.7
											s1.2-3.2,1.4-3.6c0.5-0.7,0.9-1.4,1.2-2.2c1.6-4.4,1.2-4,3.4-4.5s2.4-6,4.6-5.1c3.5,1.5-3.4,13.2,0,15
											c1.3,0.7,6.3-1,7.2-2.1c0.6-0.9,0.6-3.5,0.5-5.6c0-1.2,0.9-2.1,2.1-2.2c0.2,0,0.4,0,0.6,0.1c2.2,0.5,4.3,1.5,6,2.9
											c1.8,1.5,2.2,1.4,2.1,3.6c-0.2,2.5-1,5,1.4,4.5c1.1-0.3,0.5-3.1,1.6-3.1c4.5-0.3,5.2,7.3,7.8,11c0.3,0.4-0.6,1.5-0.9,2
											c-0.5,0.9-0.1,1.8,0.1,2.8s3.5,1.7,4.5,2.6c1.9,1.9,3.8,3.9,5.6,5.8c1.1,1.2,0.2,4.3,0.2,5.8c-0.2,4.7-2.1,8.3-3.9,12.6
											c-0.3,0.7-2.3,4-1.8,4.8c1.4,2.5,1.8,3.8-1.2,4.4c-4,0.8-7.5-3.5-11.2-5.1c-2.2-1-0.5-2.6-3.2-4c-2.2-1.1-4.3-2.6-6-4.4
											c-2.4-2.5-7.4,5.5-8.3,3.8c-0.6-1.1-1.7-2-3-2.3c-2.6-0.5,1.6,2.9,1.2,4c-0.8,1.9-1.5-1.3-3.5-0.8c-1.5,0.4-1.1,7.5-3,6.1
											c-1.4-1-3.1,0.7-4,1.2c-0.2,0.1-0.6,0-0.7,0.2c-0.8,0.8-0.5,3.4-0.8,4.5c-0.2,0.8-1,2.8-1.6,3c-0.4,0.2-3.3-2.3-3.7-2.8
											c-1.8-2.6,0.6-5.8-0.4-7.3c-0.7-1.2-2.7-1.5-3.2-2.3c-1-1.7-1.2-6.3-1.4-7.8c-0.4-3.1-0.1-4.8-2.6-6.7
											c-1.2-0.9-0.8-7.1-0.9-8.6c-0.2-2.7,0.6-4.9,1.2-7.6C-511.9-34.9-508.7-33.5-507.9-36.7L-507.9-36.7z"/>
										<path class="st5" d="M-425.5-48.2c0.8-0.1,2.1-1.5,2.7-1.9l5.4-3.8c1.6-1.1,3.1-2.2,4.6-3.3c0.7-0.5,1.1,0.4,2-0.2
											c2-1.4,4-2.4,5.3-4.1c0.4-0.4,0.5-1,0.1-1.4c-0.3-0.3-0.8-0.4-1.2-0.2c-2.6,0.8-7,5.1-7.9,2.5s2.6-4.5,5.1-5.9
											c0.9-0.4,2.2-0.2,2.9-1c1.4-1.6,0.7-1.6,1-3.3c0.3-1.5,1.7-2,2.9-2.8c0.4-0.2-0.1-1.4-0.2-1.8c-0.1-0.6,0.8-1,1.2-1.3
											s1.1,0.3,1.4,0.1c0.5-0.6,0.8-1.3,1-2c0.6-1.3,1.2-3.5,2.7-2.9c2.7,1.1,1.9,4.3,3.8,1.3c1.4-2.3,4.4-2.8,6.8-3.7
											c0.8-0.3,0.6-0.2,1.2-1.2c1.1-2,0.9-0.1,1.7,0.6c1.8,1.5,5.2-0.4,3.9,2.8c-0.8,1.9,1.5,5.8,2.1,7.7s2.7,5,1.4,6.7
											c-1.2,1.5-2,3.3-2.3,5.3c-0.3,2.4-0.6,3.8-0.6,4.8c0,1.5,1.1,2.7,2.6,2.7c0.7,0,1.4-0.2,1.9-0.7
											c4.8-4.1,9.5-8.2,14.2-12.3c0.9-0.8,1.4-2,1.3-3.2c-0.1-1.2,1.7-3.5,1.6-2c-0.1,1.9,0.2,3.3,2.2,3.4
											c1.8,0.2,3.5,0,3.7-1.8c0.1-1-1.9-1.7-1.1-2.1s1.5,1,2.1,1.3c2.1,0.7,4.5-2.1,6.6-1.1c1.8,0.8,3.8,2.3,5.4,3
											c1,0.4,6.1,2.3,6.7,1.7c2.7-2.6,1.8,0,4.1,1s5,0.2,7.5-0.2c1.9-0.2,1.2-3,3.9-2.1c1.8,0.6,0.6,3-0.5,3.7
											c-2,1.2-4.1,4.9-6,3.5c-0.6-0.5,1.2-3.8-0.7-3.4c-1.6,0.3-0.6,2.7-2,3.2c-2.3,1-2.6-1-3.1-3.4c-0.3-1.7-3,0-5,0.1
											c-1.7,0.2-4.7-0.4-5.4,1.3c-1.3,3,1.1,8.8,1.7,12c0.1,0.7,1.5,1,2,1.2c1.5,0.7-0.2,0.8,0.2,2c0.3,1,3.7,3.8,4.4,4.5
											c1.2,1.3,6.3,3.5,7.5,5.2c2.3,3.1-5.1,2.9-7.6,0.6c-2.3-2.1-4.4-5.5-6.1-1.2c-1.3,3.4-0.6,7.4,0.5,10.6l5.2,14.6
											c0.9,2.4,2.1,6.3,0.7,9.2c-1.6,3.5-4.8,5-6.6,8.3c-1.1,2.2-2.6,3.4-1.7,5.7c0.5,1.1,6.4,9.7,5.4,10.9
											c-1,1.2-1.7,2.6-1.9,4.1c-0.4,2.8-1.2,3-0.1,4.6c0.4,0.6,1.9,2,1.9,2.7c0.1,1.1-2.2,3-1.7,4.1l3,7.5
											c0.5,1.2,1.1,4.3,2.1,5c2.1,1.4,2.9,2.4,5.3,3.4c0.7,0.3,2.3,0.7,2.9,1.3s0.6,2.2,1.3,2.7c2.2,1.4,3.2,0.2,4.7-1.1
											c0.4-0.3,0.5-3,0.4-3.4s2-0.9,2.4-1.1c1.6-0.6,2.7-2.5,3.9-3.8c1.6-1.7,3.3-3.2,5-4.9c1.1-1,1-4.2,1.8-4.7
											c1.6-1.1,4-2,5.3-3.4s1.7-3.4,2.3-5.1c1-2.9,1-3.4,0-6.2s3.7-7.7,5.4-9.3c2.3-2.1,5.5-3.4,8.7-4.7c2.4-1.1-1-14.4,6.4-7.8
											c1.2,1.1,2.8-0.3,4.1-0.9c2.5-1.2,4.9,1.2,6.4,3.1c2,2.7,2.8,2.8,6,3.4c2.6,0.5,3.6,3.8,10.4,3.7c1.7-0.1,3.4-0.6,4.9-1.3
											c2.7-1,5.2-2.4,7.4-4.3c0.6-0.5,2-2.2,2.4-2.5s-0.1-0.7,0.6-0.9c0.5-0.1,0.9,0,1.1-0.5c0.1-0.8,0.1-1.5,0-2.3
											c0.4-2.1,1.6-4.2,2.4-6.2c0.5-1.2,2.5-1.2,2.7-2c0.2-1.3-0.6-3.2-0.8-4.6c-0.3-2.4-0.6-4.8-1-7.2
											c-0.4-2.8-3.6-4.7-3.5-7.2c0.1-1.7,0.9-4.8,0.4-6.4s-2.2-1.8-2.2-3.8c-0.1-2.4-0.4-2.1-2.6-3.1c-1.4-0.6-3.5-1-4.3-2.4
											c-1.2-2.2-2.5-2.9-4.7-4.3c-1.2-0.8-3.6-3.2-5.1-3.3c-1.2-0.1-2.7,0.2-3.4-1.3c-0.3-0.7-0.9-1.3-1.7-1.6
											c-3.1-1-1.5,2.6-2.7,2.8c-2.3,0.4,0.4,3.6-2.7,3.3c-1.9-0.2-3.9-0.5-5.8-0.8c-0.8-0.1-1.4,1.3-2.2,1.3
											c-1.3,0-2.6,0-3.9,0.1c-0.5,0-2.1-0.8-2-1.5c0.1-0.8,1.6-0.5,1.8-1.2c0.7-2.7-2.1-3.5-4-4.3c-0.7-0.3-1.5,1.1-2.2,1
											s-6.3-1.4-8.1-2.1c-2-0.8-0.8-2.7-3.8-2.5c-4,0.3-1.3-6.1-0.8-7.7c0.1-0.5,0.2-2.3,0.6-2.2s0.9,1.5,1.5,1.8
											c2.1,1.3,2.8,0.7,5.1,0.8c-1.6,2.2,2.8,3.3,4.2,3.5c0.7,0.2,0.9,0,1.5-0.3s-0.3-0.7,0.1-1.1c0.6-0.6,0.2-0.5,1.9,0.1
											c1.4,0.5,0.6-1.3,1.1-2.3c0.3-0.7,1.9-0.4,1.5-1.7c-0.5-1.4-0.4-1.7-1.8-2.3c-1.1-0.5-3.2-2-1.5-2c2,0,2.6,2.2,4.3,3
											c1.3,0.6,0,0.8,0.7,1.6c0.4,0.5,2.2,0.2,2,0.3c-1.4,0.8-3.8,5.2-3.4,6.1c1,2.7,8.6-4.5,9.1-5.5c0.8-1.9,1.7-0.1,2.5-1.6
											c0.5,1.2,3.5,0.5,4.7,0.5s1.4-2.4,2.4-1.9c0.4,0.3,1,1,1.4,1c-1.2,1.1-2.6,2.1-4,2.9c-1.7,0.6-3.4,0.8-5.2,0.8
											c-1.6,0.1-2.2,1.7-0.3,2.1c-1.2,1.5-1,3.7,0.4,5c1.2-2.2,0.4-3,2.7-3.8c1.5-0.6,4.3-0.1,5.9-1c2.4-1.1,4.4-3,6.8-1.8
											c1.1,0.6,0.8,4.2,3.5,3.2c3.2-1.1,1.9,2.7,1.9,3.9c0.1,1.4,2.7,3.8,2.1,5.1c-1.8,4.3,0.4,8,4.8,9.5
											c2.1,0.8,3.4,0.3,5.4,1.4c1,0.6,1.5,0.3,1.6-0.7c0.1-1.2,0.8-1.1,1.4-2c0.4-0.6-0.4-1.7,0-2.7c0.4-1.2,3.6-6.6,2.5-8.1
											c-0.5-0.7-4.3-1.3-5.2-1.7c-2.5-1.1-4-1-4.3-3.7c-0.7-6.5,10-2.6,8.3-6.4c-0.3-0.7-3.6-1.2-3.5-1.9
											c0.1-1.4-0.1-2.2-1.7-1.8c-1,0.2-2.9-4.8-3.1-5.7s-3.1-7.2-4.4-7.9c-0.8-0.6,1.3-2.3,1.7-2.7c0.9-0.9,1.8-2,1.4-3.4
											c-0.4-1-0.5-3.4-1.9-3.4c-0.7,0-2.5,2.6-2.3,3.3c0.4,1.1,0.5,2.7-0.7,3.5c-1.8,1.2-1.8-0.5-3.1-1.1
											c-1-0.4-2.6,0.6-3.2,0.3s-5.1-4.5-4.9-4.1c-3.4-0.5,0.8-4.7,0.9-5.4c0.5-2.5-3.5-4.4-3.8-1.9c-0.3-0.1-0.7-0.3-0.9-0.5
											c0.7-1.5,0.8-2,2.3-2.6c1-0.4,1.4-1.2,0.8-2.1c-0.7-1.2-1.9-2.1-3.2-2.5c-1.1-0.4-2.2-0.6-2.7-1.7c1,0.1,1.8-0.4,1.8-1.4
											c1.4,0.7,2.6,1.7,3.6,2.9c1.5,1.8,1.4,2,3.6,1.5c2.5-0.6,5.2-3.2,4.3-6c-0.4-1.3-1.7-3.5-1.7-4.9c0-0.8-0.4-1.2,0.7-1.7
											c0.6-0.2,1.3,0,1.7,0.5c1,1.5,1.6,2,0.8,3.9c-0.4,0.9,0.3,3.1,0.7,4c0.3,0.7,0.9,0.2,1.1,1.3c0.2,0.7,0.3,1.4,0.2,2.1
											c-0.3,2-1.4,2.2-3.1,2.5c-2.1,0.5-1.7,1.6-1.4,3.5c0.4,2.1,1,1.8,0.1,3.9s-1.4,2.2,0.4,3.9c1.4,1.3-0.1,2.3,2,3.2
											c0.1,0,5-4.6,6.1-5.1c0.8-0.4,0.4-2.6,1.4-2.4c1.8,0.4,1.3,5.7,3.7,5.8c2.2,0,4-3.6,4.7-5.3c2.4-5,1.4-16.8-1.3-22
											c-5.2-10.1-16.4-14.7-16.7-14.5c-0.5,0.3-0.6,1.2-0.2,1.4c0.9,0.4-0.8,1.1-1.2,1.7c-2.5-2-3.5-1.9-6.8-2
											c-2.5-0.1-5.1-0.9-7.1,0.7c-0.6,0.4-1.1,1-1.4,1.7c-0.1-0.3-0.3-0.5-0.9-0.8c-0.8-0.3-2,0.8-2.5,0
											c-0.8-1.8,5.2-2.9,5.3-4.8c0.1-2.5-2.2-1.9-4.7-2c-1.5-0.1-0.6,3-1.7,3.8c-1.9,1.3-1.6-1.2-0.8-3.4
											c0.2-0.6-1.9-2.7-2.3-3.2c-1.1-1.4-8.8-6.3-8.7-7.2c0.1-1.3,0.7-2.4-0.6-2.6c-3.2-0.7-7.4,1.6-9.1-1.2
											c-1-1.5,0.9-1.8,2.8-1.8c1,0,1.8-0.5,2.4-1.4c0.7-1.2,2.1-2.2,1.5-3.5c-1-2.1,0.2-0.7,0.5-2.2c0.4-1.8,1.7-2.4-2-3.1
											c-0.9-0.2-1.7-0.5-2.5-0.9c-0.7-0.3-3.1,5.1-3.8,5.8c-2.3,2.2-4,1.3-4.9,4.7c-0.5,1.8-0.8,2.1,0.2,3.6
											c0.4,0.6,1.3,2.6-0.2,1.8c-0.9-0.5-3-1-2.7-2.1s0.4-2.9,1.1-3.9s2-0.9,1.4-2.2c-0.7-1.5-1.5,0-2.6-1.3
											c-2-2.4,2.1,0.4,2.9,0.6c1.6,0.6,2.2-0.9,3.1-2c2.4-2.8,7.9-5.8,5.7-8.8c-0.8-1.1-0.2-0.9-1.5-0.5c-6.3,1.8-2.9,1.1-4,0.4
											c-0.8-0.6-3.4-0.2-4.3-0.3c-1.3-0.1-2.6-0.7-1.9-1.8c1.1-1.9,6.5,0.9,5.7-2.9c-0.5-2.4-0.7-5.5-1.9-7.7
											c-3-5.2-11.9-8.9-9.6-14.5c0.9-2.3,1.9-6-0.9-4.9c-1.9,0.8-2.3,1.4-3.8,0.2l-3.7-3.2c-0.8-0.7-3.4-0.5-4.5-0.7
											c-1.5-0.2-1.4,0.8-2,2.1c-0.8,1.8-1.4,2.1,0.1,4.4c0.7,1.1,1.2,2.3,1.6,3.5c0.5,1.6,1.9,2.7,1.1,4.1
											c-0.7,1.2-2,0.4-1.6-0.8c0.8-2.2-1.4-5.4-3.2-6.6c-2.4-1.6-5.6-5-8.4-4c-1.1,0.4-1.3,0.7-2-0.1c-0.2-0.2-1.5-1.3-0.8-1.4
											c1,0,1.9-0.8,2.2-1.8c0.8-3.8-6.2-7.3-9.3-5c-1.2,0.9,1.5,3.4,0.3,4.4c-1.9,1.6-6.4,0.6-7.2-1.8c-0.4-0.9,1.9-1.4,1.6-2.4
											c-0.5-2.5-4.4-2.5-6.6-3.8c-0.5-0.3-1.6-0.6-1.4-1.3c0.4-1.1,0.9-0.2,2-0.9c2.4-1.6,0.6-3.5-1.7-5.1
											c-2.1-1.5-4.2-2.9-6.4-4.5c-1.5-1-5-1-6.7-1.3c-3-0.6-3.5-0.2-4.5-3c-0.9-2.6-3.2-2.8-5.6-3.9c-1.3-0.6-1.2-0.6-2.4,0.4
											c-0.4,0.4-1.4,1.7-1.9,1.2c-2-1.9-4-4-5.9-5.9c-1.3-1.3-3.9,0.6-5-0.9c-1.9-2.6,1.4-0.5,3.1-2.1c1-0.9,0.1-2.4-0.7-3
											c-2.9-1.9-5.7-3.8-8.5-5.6c-2.1-1.4-5.4-0.9-7.8-1.1c-3.4-0.2-5,2.6-7.9,0.9c-1.7-0.9,0.6-3.3-1.5-3.4s-4.8-2-6.2-0.4
											c-0.8,0.9,1.7,4.6,0.4,5.1c-0.5,0.2-2.5,0.7-2.6,1.2c0,0.4-0.5,2.4-0.2,2.5c4.2,1.4,7.4-0.3,11.9,0.6
											c1.9,0.4-0.9,2.4-1.9,3.4c-1.3,1.2,0.8,2.1,0.1,3.6c-0.9,1.7-3.9,1.9-5.5,1.5c-2.9-0.6-5-0.6-3.9,2.1
											c2.7,6.1-0.9,11.6,3,15c0.8,0.7,3-1.3,3.6,0.5c0.2,0.5-0.9,1.7-0.5,2.1c0.7,0.5,1.3,1,2,1.5c1.7,1.4,1.9,1.4,0.5,3.1
											c-1.1,1.3-2.4,2.4-3.9,3.2c-1.4,0.6-3.1,1.8-4.2,2.4s0.5,1.5,0.4,2.3s-2.2,2-2.8,2.5c-0.9,0.8,0.5,1.4,0.5,2.5
											c-0.2,0.9-0.6,1.8-1.1,2.6c-0.9,2.3-4,4.6-2.8,6.7c1.9,3.2,6.4-2.2,9.5-4.2c1.7-1.1,3.4-2.1,5.1-3.2
											c0.9-0.6,1.1-2.9,1.6-3.9c1-1.9,1.5-13.4,2.4-15.3c0.7-1.3,0.4-3.5,1.6-4.5c0.8-0.6,3.1,1.2,1.5,2.5s-1.9,1.3-1.6,3.4
											c0.4,2.3,0,2.5,2.3,2.8c1.3,0.2,1.6-2.6,2.8-2.4c3.5,0.5,2.9,7.1,0.1,9c-2.3,1.6-5-0.9-4.1,1.8s0.9,4.3,3.6,5.2
											c1.1,0.4,0.8-1.4,1.8-2.3c0.7-0.7,2.1,0.6,2.7,1.5c0.5,1,1.1,1.9,1.9,2.7c0.9,0.7,5.3,3.6,5,4.6c-1.3,4.9,1,10.8-2.6,14.4
											c-1,1-3.7,1.1-4.3-0.2c-0.7-1.6-1-3.1-2.1-2.5c-1.9,1-3.8,1.9-5.8,2.9s-5.8,4.4-6.6,6.4c-1.3,3.4-3.2,6.8-3.5,10.4
											c-0.2,2.2-1.1,4.9,3.4,7.9c1,0.6-0.1,2.1-0.4,3.2c-0.1,0.5,0.4,0.9,0,1.2s-1.2,0.6-1.3,1c-0.4,1.1,1.1,2.4,0.5,3.6
											c-0.6,1.4-0.4,1-2,1.9c-1,0.6-2.2,0.9-3.4,0.9c-1.3,0-1.9,1.6-2.5,2.5c-1.4,2-0.2,4.4,1.7,5.4c0.8,0.4,3.7-1.6,4.4-2.5
											s-0.7-2.8,1.5-2.9c1.1-0.1,2,1.5,2.6,0.3s1-3.2,2.5-2.9c1.1,0.3,1.4,2,1.7,2.9c1.2,3.1,2.2-1.7,3.3-2.5
											c1.4-0.9,2.2,2.2,2.1,3.6c-0.1,2.7,0.3,3-2.2,4.1c-2.9,1.3-1.3-1-1.9-2.3c-0.8-0.6-1.7-1.1-2.6-1.3
											c-0.8-0.3-1.6,0.1-1.9,0.9c-0.1,0.4-0.1,0.9,0.1,1.3c0.3,0.6,0.6,1.2,0.8,1.8c0.4,1.5,0.4,3.4-1.2,4.1s-2.2,2.4-7.7,6.2
											c-2,1.4-3,1.4-3.7,3.6c-0.4,2.1-0.7,4.1-0.8,6.2c-0.2,1.8,1.3,4.8,1.9,6.5c0.6,2.1,1.7,2.8,3.2,4.4
											c0.8,0.8,1.7,1.4,1.9,2.6c0.1,0.7,0.5,1.3,1.1,1.8c1.7,1,1-2.7,3.9,0.3c0.2,0.2,0.4,0.5,0.6,0.8c2.1,4.9-3.3,6.3-6.7,7.8
											c-2.9,1.2-7.6,6.1-6,9.8c0.4,0.8,1.6,0.9,1.9,2c0.2,0.7,0.2,2.6,0.8,3.1c2,2,2.8-0.8,4.3-1.4c2.2-1,4.4-1.7,6.8-2.2
											c0.4-0.1,0.6-2,1.3-1.2c0.4,0.4-0.3,1.4-0.5,1.8c-0.9,2.1-1.3,4.7-3.1,6.1s-3.5,1.7-5.5,2.7c-2.6,1.4-9,9.4-9.7,10.5
											c-1.1,1.6-1.6,2-2.8,2.2c-1,0.2-1.8,1.1-1.9,2.2c-0.1,1.2-0.2,2.4-0.3,3.7c1.2,0.6,2.4,1.1,3.7,1.3L-425.5-48.2z
											 M-251.9-72.9c2-0.8,1.1,0.3-0.4,1.7C-252.2-71.8-252.1-72.8-251.9-72.9L-251.9-72.9z M-254-126c-1.1,0.6-1,3-2.3,3.3
											c-0.7,0.2-3.7,0.6-3.7-0.8c0-0.7,2.2-1.5,2.8-1.8c-1.6-0.6-4.5-0.2-4.7-1.9s0.9-2.8,1.2-3.6c0.2,2.8,8.6,4,10.4,4.3
											C-250.9-124.9-252.9-126.6-254-126z M-289-80.7c-0.7-0.3-4.4-1.7-2.4-2.9c2.3-1.3,3.1-1.2,5.8-1c1.4,0.1,2.1-2.1,3.4-2.6
											c1.9-0.7,0.8,4.6,3.3,4.4c1.6-0.1,3.2-2,2.3-3.4c1.5-0.5,2,0,2.4,1.3c0.3,0.6,0.5,1.3,0.6,2c0,0.3-0.9,0.6-0.9,1
											c-0.1,2.8,2,3,0.1,5.6c-0.9,1.3-3.6,2.1-4.7,0.3c-1.5-2.6-1.8-4-4.8-4.4C-286-80.7-287.1-79.9-289-80.7z M-318.6-42.1
											c1.5-1.5,3.1-2.9,4.9-4c1.3-0.9,2.8-0.3,3.8-1.1c1.2-0.8,1.5-3.3,2.7-3.2c3.7,0,5.5-0.7,8.3-3c8.1-6.6,6.6-0.7,3.4,2.9
											c-2.3,2.5-13.8,4.9-16.3,6.8c-1.2,1-1.7,2.8-3.4,3.2c-0.8,0.2-1.4,0.3-2.2,0.5c-0.7,0.1-1.4-0.4-1.5-1.1
											C-318.9-41.4-318.8-41.8-318.6-42.1L-318.6-42.1z M-309.2-90.2c-1.1-0.5-1.9-0.8-1.1-2.2c1.2-2,1.9,2,3.1,1.5
											c1.8-0.7,3.6-1.7,5.1-3c1.3-0.9,0.5-2.1-0.6-4c-0.3-0.5,1.2-3,1.6-2.8c1,0.4,2,1.1,2.7,1.9c1.6,1.5,2.1,3.8,1.5,5.8
											c-0.3,0.8-1.2-0.3-1.6,0.1c-0.4,0.6-0.7,1.3-0.9,2c-0.5,1.2-1.7,1.2-2.7,1.6c-1.6,0.6-6.4,1.2-5.2,2.9
											c1,1.4,1.8,0.4,1.5,1.9s-0.4,1.4-2.1,1.8c-0.7,0.2-6.1,1-5.2-1c0.3-0.8,0.1-2.8,0.5-3.2s2.6,0.1,3-0.7
											C-308.9-88.7-307.9-89.6-309.2-90.2L-309.2-90.2z"/>
										<path class="st5" d="M-463.4-68.9c-1.1-1.4-4.2,0.7-3-1.6s2.9-1.3,4.9,0.2c0.5,0.3,1.4,1.5,0.8,1.9
											C-462.2-67.3-462.2-67.5-463.4-68.9L-463.4-68.9z"/>
										<path class="st5" d="M-442.4-47.8c-1.9,0.5-3.9-0.2-4-1.5c-0.4,0.5-1,0.7-1.6,0.6c-0.9-0.2-1.3-1.2-2-1.9
											c-0.3-0.3-1.1-0.1-1.6-0.3c0.2,0.3,0.3,0.8,0.2,1.2c-0.3,2.2-4.4,2.2-4.6,0c-0.1-0.5,0.1-0.9,0.4-1.3
											c-1.9-0.5-3.4-2.2-2.4-4c1.1-1.9,6.9,1.6,5.5,3.3l0.4,0.2c-0.4-0.7,0.2-1.2,0.8-1.6s2.2,0,2.3,0.7c0.1,0.5-1.2,0.9-1,1.4
											c0.9,1.8,3.5-0.2,3.7,0.8l0.1-0.3c1.1-1.8,4.3-0.9,6.3-0.6c2.6,0.5,5.2,1,7.8,1.5c1.5,0.3,1.7,0.3,2.5,1.7
											c0.5,0.8,0,1.9-1.1,1.7c-2.5-0.5-4.8-2-7.3-1.5C-440.2-47.1-440.8-48.3-442.4-47.8L-442.4-47.8z"/>
										<path class="st5" d="M-459-52c-0.5,1.3-1.9,0.7-2.4-0.1c-1.2-1.9-3.6-1.4-3.7-3.7c-0.1-2.1,3.6-1.3,4.7,0.8
											C-460.2-54.5-458.8-52.4-459-52z"/>
										<path class="st5" d="M-496-83.7c2.4,1-3.5,1.1-3.2,2.8s0.5,1.6,1.1,2.5c0.9,1.3,3.7,1.5,2.7,3.2c-0.8,1.3-2.8,0.1-3.9-0.8
											c-1.6-1.4,0.9-3.1-0.8-4.1c-0.8-0.5-1.5,0.8-1.7-0.1C-502.4-83-498.6-84.8-496-83.7z"/>
										<path class="st5" d="M-460.2-73.4c-1-1.9-0.6-2.4,1.1-3.5c0.4-0.2,0.9,0.3,1.2-0.1c0.6-0.6,0.8-2.2,1.6-1.9
											s0.4,3.4-0.1,4.2C-457-73.6-459.6-72.4-460.2-73.4L-460.2-73.4z"/>
										<path class="st5" d="M-450.7-64.1c-1.1-0.5-3,6-4.8,4.2s2.1-5.8,3.4-6.8c0.6-0.5-1-2.3-1.3-2.9c-0.2-0.4,1-0.8,1.2-1
											c0.5-0.3,0.7,0.5,1,0.9c1.8,2.6,4.5,0.3,1.6-1.2c-3.5-1.9-7.5-0.8-5.8-4.4c1-2.3,2.1-0.4,3.3,1.8c0.7,1.2,2.7,0.3,3.7,0.5
											c1.2,0.2,7.6,1.6,6.6-2.2c-0.6-2.2-5.8,1.2-5.4-1c0.1-0.4-0.9,0.4-1.4,0.2c-1.8-0.9,0-3.1,1.5-4.1
											c11.7-7.9,13.9-12,14.1-12.5c0.9-1.8,1.5-1.8,3.4-1.5c1.2,0.2,2,1.3,1.9,2.5c0,0.1,0,0.2-0.1,0.2
											c-0.5,1.2-5.2,4.6-6.9,9.5c-0.8,2.2-0.6,8,0.4,10.8c0.5,1.6,4.5,2.5,5,5.7c0.3,2.2-2.5,5.8-3,6.4c-1.9,2.5-1.5,1.5-4.5,1
											c-1.7-0.3-2.4,0.4-4.5,1.4c-0.8,0.4-1.7-0.8-2.2-1.5c-1.3-1.9-2.5-1.4-1.6-3.4c0.3-0.7-2.3-0.2-2.6,0
											c-2.1,1.2-1,1.8-1.8,3.7c-0.4,0.8-3-0.3-2.7-1.1C-451.7-60.8-449-63.4-450.7-64.1L-450.7-64.1z"/>
										<path class="st5" d="M-413.6-97.6c2.3,0.7,2.2,5.2-0.7,4.2c-1-0.4-1.7-1.3-1.7-2.4C-415.5-97.9-415.6-98.2-413.6-97.6z"/>
										<path class="st5" d="M-426.9-107.2c-1.6-0.2,0.5-4.4,1.4-6.6s3.3-3.3,3.6,1.4C-421.9-109.3-424.8-106.9-426.9-107.2z"/>
										<path class="st5" d="M-427.5-130.3c-2.2,1-2.5-1.4-1.9-2.9c1.7-3.9,11.7,0,6.7,1.3C-424.3-131.5-425.9-131-427.5-130.3z"
											/>
										<path class="st5" d="M-430.7-135.8c-2.8-1.2-2.2-3.5,0.5-5C-427.8-142.1-428.2-134.6-430.7-135.8z"/>
										<path class="st5" d="M-435.3-145.4c-0.7-0.3-0.9-2.4-1.1-3c-0.7-2.3,1.6-3.8,3-5.6c0.4-0.5,1.6-1.7,1.3-2.3
											c-0.6-1.3-1-1.2,0.3-2c1.7-1.1,4.7-4.3,5.8-1.2c1,2.9-0.5,2.6-1.6,4.6c-0.5,0.9-2.5,2.9,0.6,4.8c1.6,1-0.7,3.7,0.4,5.5
											c1.9,3.4,5.1,6.9,2.1,7c-2.8,0.1-2-2.7-4-4c-1.5-1-5.5,1.9-4.9-1.8C-433.2-144.9-434-144.7-435.3-145.4L-435.3-145.4z"/>
										<path class="st5" d="M-428.8-180.2c0.1-0.4,0.2-1.3,0.6-1.4c2.4-0.4,3.2,4.6,1.1,5.4c0.2,0.3,0.3,0.6,0.4,0.9
											c0.2,1.7,0.6,3.5,1.1,5.2c0.9,2.2,5-1.7,6.8-2.1c-0.2-0.5-0.2-1.1-0.1-1.7c0.1-1.9,7.8-2.5,6.2-6.3
											c-1.2-2.8,4.4-4.2,6.6-5.6c2.8-1.7,6.6-7.3,8.8-4.8c1,1.1-1,3.5-2,4.7c-1.2,1.4-3.7,2.5-5.2,3.5c-2.9,1.9-4.1,4.9-6.7,7.1
											c-1.1,0.9-4.6,4.2-6.5,4.1c0.3,1.6-2.2,3.3-2.9,5.1c-0.8,1.9,1.5,4-0.9,5.3c-1.7,1-5,3-4.7-0.8c0.1-1.2,4.1-0.9,3.8-2.3
											s-3.1,0.3-4.1,0.2c-3.3-0.5-1.9-1.8-2-5.1c0-1-1-5.9,0-7.3C-429.3-177.1-428.9-178.8-428.8-180.2L-428.8-180.2z"/>
										<path class="st5" d="M-426.2-189.1c1.6-1.6,3.2,1.6,2.1,3.1c0.6,0.7,0.2,2.5-1.1,3.5c-1.9,1.6-1.8-2.5-0.9-3.5
											C-426.7-186.9-426.8-188.5-426.2-189.1z"/>
										<path class="st5" d="M-426.2-246.6c-0.8-0.5-2.3,0.6-2.8-0.3c-1.1-2.1,1.6-4.6,4.5-2.4
											C-422.3-247.6-423.4-245-426.2-246.6z"/>
										<path class="st5" d="M-350.5-9.4c1.8,0.3,1,7.2,1.2,8.9c0.2,2,5.5,2.1,3.9,5.4c-0.7,1.5-1.5,3-2.2,4.5
											c-0.5,1,1.4,2.7,1,3.6c-0.8,1.3-1.5,2.7-2,4.1c-0.6,2-2,5.3-5.2,0.6c-1.3-1.9-1.5-3.5-0.3-5.4c1-1.4-0.7-7.5-0.9-9.3
											c-0.2-1.5-0.4-1.5,1-2.1c1.7-0.7-1-2.5-1-2.5C-357.6-1.4-353.4-9.9-350.5-9.4L-350.5-9.4z"/>
										<path class="st5" d="M-191.4-89.7c-1.4,0.7-5.1-0.1-6.1-1.2c-1.5-1.7-3.7-4.4-2.6-6.8c0.7-1.7,1.2-1.6,3-2.1
											c2.1-0.6,0.7,0.8,1.8,1.6c1,0.6,1.6-0.8,2.9,0.3c0.6,0.6,1.1,2.2,1.4,3c0.6-1.2-0.2-2,1.8-2.2c1.1-0.1,3,2.3,2.8,3.5
											c-0.4,1.9-2.9-0.3-2.2,1.7c0.4,1-0.6,1.1-1.3,0.8C-191-91.7-190.4-90.3-191.4-89.7z"/>
										<path class="st5" d="M-266-151.2c-1.3-0.6-4,1.6-4.1-1s0.9-2.9,2.4-4.6c0.7-0.8,0.1-1.4,0.3-3.8c0.1-1.3,2.1-3.8,1.3-4.9
											c-1.2-1.5-2.3-3.1-3.2-4.8c-0.6-1.1-2.7-1.7-2.2-2.7c1.2-2.7,2.5-4.9,4.1-2.4c2.6,3.9,5.2,4,5.9,7.1
											c0.6,2.7-0.9,3.9-1.1,6c-0.1,1.8,1.4,2.8,0.9,4.6s-0.1,2.3,0.3,4.7C-261-150.5-264.1-150.5-266-151.2L-266-151.2z"/>
										<path class="st5" d="M-379.9-58.4c-0.4,0.7-0.8,1.3-1.2,2.1c-0.1,0.4,1,0.1,0.6,0.6s-0.6,1-1,1.5
											c-1.3,2.1-2.6,1.2-3.8-0.4c-0.9-1.2,0.6-3,1.6-4.1C-383.3-59.2-378.7-60.6-379.9-58.4L-379.9-58.4z"/>
										<path class="st5" d="M-136.3,30.8c-2,1.3-5.1-0.1-3.8-2.1C-139.5,27.6-133.9,29.3-136.3,30.8z"/>
										<path class="st5" d="M-154.8-48.2c1.5,0.5,1.2,2.8,1.8,4.3c0.4,0.8,2,3.5,1.8,4.3c-0.7,2.7-7.9,1-9.6,0.9
											c-1.5-0.1,0-6.5,2-5.3c0.6,0.4,3.6,1.8,2.8-0.2C-156.9-46.8-157.4-48.9-154.8-48.2L-154.8-48.2z"/>
										<path class="st5" d="M-78.3-96c-1.1,2.1-1.6,3.5-3.4,3.4c-1.5-0.1-4.4-3.2-5.9-3.5c-9.1-1.8-8.8-6.5-6.9-7.5
											c2.9-1.6,2.5,0.4,5,0.3c1.9-0.1,1.3-1.6,3-3s6.6,4.2,9.8,3.3c3.5-1,6.9,2.9,6.1,4.9C-72-94.8-76.8-98.8-78.3-96z"/>
										<path class="st5" d="M-83.6-109.3c-2.8,0.6-2.5-0.8-5.4-0.5c-1.9,0.2-0.7-1.7-0.2-2.8c0.4-0.8,3.4-1.5,5.1-0.4
											C-81.2-111.2-82.1-109.7-83.6-109.3z"/>
										<path class="st5" d="M-96-109.8c-0.2,0.8-0.9,1.8-1.7,1.8c-1.7-0.1-3.1-2.8-1.8-4.5c1.6-2.1,5.2-1.7,5.1,0.2
											C-94.5-110.7-95.7-111.6-96-109.8z"/>
										<path class="st5" d="M-107.5-108.4c0.4-1.3,4.4-3,5.3-4.8c2.4-5.3-2.4-9.2-2.8-9.3c-2.3-0.3-2.6,1-4.7-0.9
											c-1.4-1.3,0.9-1.9-1-2.6c-1.4-0.5-2.7,0.2-4,0.6c-1.7,0.5-1.6-0.5-2.5-2c-0.8-1.3-1.1-1.1-2.7-1.2
											c-5.1-0.4-12.1-5.1-15.2-1c-1.4,1.8,0.8,2.2,2.9,3.1c1.1,0.5,4.3,1,3.6,1.9s-3.1-1.6-3.6-0.5c-1.2,2.5,3.9,3.9,5.8,5.8
											c1.7,1.7,3.4,1.8,5.7,2.3s-4.1,1.4-1.8,3c1.1,0.7,2.3,1.1,2.7,2.3c0.3,1.1,1.6,0.6,1.8,1.9c0.1,0.7-1.8,0.1-2,0.8
											s1.9,3,2.5,2.9c1.2-0.3,2.5-0.8,3.7-0.4c3,1,8.2,3,8.2-0.3C-105.3-107.3-107.7-107.7-107.5-108.4L-107.5-108.4z
											 M-111.6-118.1c-1.2,0-2.4,0.1-3.6,0.4c-0.9,0.2-4.2-4.4-2.7-4.5c3.1-0.3,3.7,3.7,8,1c0.8-0.5,2.1-0.1,2.2,0.5
											C-107.3-119.1-110.1-118.3-111.6-118.1L-111.6-118.1z"/>
										<path class="st5" d="M-197.4,129.2c0.6-0.7,1.5-1,2.4-0.7c1.4,0.8,0.9,5.2-1.4,5.8C-199.8,135-198.2,130.1-197.4,129.2z"
											/>
										<path class="st5" d="M-221.2,48.8c0,1.7,2,4.5,2.7,6.1c1.1,2.5,1.5,2.4-0.6,4.3c-1.2,1-1.7,4.4-2.3,5.8
											c-1.2,3.3-2.6,8.7,1.3,10.3c2.2,1,2.8,2.3,4.1,4.4c1.5,2.3,2.1,2.5,1.1,5c-1.4,3.6-1.8,7.6-0.9,11.4
											c0.3,1.9,1.5,3.8,2.2,5.7c0.8,2,3.9-0.3,4.3,1.8c0.3,1.4-2.6,1.3-3.8,1.9c-0.9,0.5-0.2,2.3-0.1,3.2c0.4,3.1,3,2.4,3.9,5.5
											c0.2,0.6-2.2,3-2,3.3c0.9,0.9,3.2,2.1,2.3,3.2c-2.1,2.6-1.9,5.5-2.2,8.7c-0.2,3-2,2.3-2.9,5.9c-0.3,1.2-0.2,4.6-0.7,5.8
											c-2.2,6.5-7.4,1.6-9.1,2.6c-1.5,0.9,1.4,2.4,3.7,3.6c1.1,0.6,8.1,0.1,9.3-0.6c1.9-1.2,10.7-6.8,10.8-10
											c0.1-2.5-0.8-5.2-0.1-7.3c0.8-3,2.2-4.1,5.3-4.4c1.8-0.2,3.1-4.4,3.8-5.9l14.8-30.2c1.5-3.1,4.4-2.4,7.8-3
											c1.3-0.2,4.4-0.2,5.4-1c1.5-1.2,3-2.3,4.5-3.5c3.9-3,7.8-6.1,11.7-9.1c2.2-1.7-0.8-3.7-0.2-4.8c0.3-0.6,2.3-0.2,2.1-1.1
											c-0.1-0.9,0-1.9,0.4-2.7c0.6-1.6-1.9-2.7-1.8-4.5c0-1.6-0.6-5,0.2-6.4s1.7-4.6,3.4-5.2c2.7-1,1,2.1,2,3.4
											c4.3,5.3,7.6,5.5,11.8-1.2c2.5-3.9,4.9-2.8,8.7-3.6c2.2-0.5,4-1,6.2-1.7c2.8-0.8,1.8,2.1,3.8,2.1c2.3,0,5.1,0.4,7.3-0.2
											c2-0.5,4.2-2.1,6-3c2.5-1.2,2.7-1.5,3.8-4.1c0.4-1.4,1.3-2.6,2.5-3.4c2.4-2,4.8-4,7.3-5.9c1.2-0.9,3.3-2,4.1-3.3
											c0.6-0.8,0.2-2.6,0.9-3.3c0.2-0.2,1.8-1.2,1.6-0.3c-0.5,2-1.5,3.9-2.9,5.4c-2.8,3.3-4,9.5-2.4,9c1-0.4,1.4-2.2,1.8-3.2
											c1-1.5,2.1-2.9,3.4-4.2c2.1-2.2,4.2-4.5,6.1-6.9c0.5-0.8,1-2.9,1.9-3.5s9.8-37.4,13.2-38.7c2.5-0.9,6.8-11,7.1-11.6
											c1-2.3,1.2-7.9,4.2-9c0.1-0.1,0.3,0,0.3,0.1c0,0,0,0,0,0c0.5,1.2-1.5,4.9-0.2,5.2c1.6,0.4,1.8-4.9,3.1-5.9
											s4.7-1.5,6.3-1.6c1.5-0.2,1.8-2.5,5.1-2.6c1.9-0.1,5.7,1.2,7.2,0.6c2.9-1,8.7,5,11.2-0.8c2.6-6.2,0.2-16.2-0.5-16.9
											c-1.9-1.5-0.4-3,2-3.3c2.1-0.2,2.7,0.1,3-1.8c1.1-6.7-9.5-11.6-13.1-14.2c-2.6-1.8-5.4,1.2-8.7,0.7
											c-3.1-0.4-6.2,0.4-8.8,2.2c-8.7,5.9-22.1-0.1-22.9,1.4c-0.2,0.3-1.5-0.2-0.7-0.7c0.6-0.3,0.8-1,0.6-1.7
											c-1.5-3.5-4.5-0.1-7.5,1.4c-2.2,1.1-5.1-0.4-6.6,1.6c-2.3,3,0.6,3.7-3,2.9c-0.6-0.1-12.3-8.8-25.1-6.4
											c-2,0.4-7.8-0.1-8.2-2c-0.3-1.7,0.7-4.2-0.8-5c-1-0.6-4.8,1.3-5,2.5c-0.2,0.9-0.1,4.5-1.2,5.5c-2.6,2.1-0.6-9.6,1.2-10.5
											c1.1-0.5,2.5-1.5,3.7-1.6c4.2-0.2,7.7,2.3,10.2,1.7c1.7-0.4,4.9-3.1,5.3-4.8c0.5-2.5-4.1-9.6-2.5-9.9
											c1.1-0.2,4-0.7,3.6-2.6c-0.4-2.1-6.6-1-7.1-0.1c-2.2,3.9-2.8,4.3-7.2,2.9c-0.8-0.3-2.1-2.2-2.8-2
											c-1.6,0.4-3.9-0.2-4.6,1.2s1.1,3.8,2.6,3.9s2.8,3.2,1.3,2.3s-10.9-2.7-13,0.3c-1.5,2.2-0.6,5.8-1.5,6.6
											c-1.4,1.4-7.9,9.8-5.6,10.3c1.7,0.5,2.6-3.6,4.2-3s0.9,1.8-0.6,2.8l-3.7,2.6c-0.9,0.6,1.1,5.6,1.4,6.7
											c0.2,0.9,6-0.6,7.1-0.8c1.6-0.3,3-4.5,4.6-4.4c0.8,0,3.3,4,4.3,2.8c0.5-0.6,0.6-1.3,1-1.4c0.7-0.2,1.4,0.5,2.9,0.4
											c1.7-0.1,19.2,18.8,11.6,24.2c-1.3,0.9-8.6,4.3-10.3,4.3c-1.4,0-6.1-0.8-7.2,0s0.2,3.3-0.7,4.2c-1.5,1.6-2.4-1.4-1.7-3.4
											c0.8-2.2-2.9-1.2-3.1-3.2c-0.2-2.7-2.3-8-3.1-10.5c-3.4-11.6-16.2-3-17.3-1.1c-0.7,1.1-1.5,3.2-2.6,3.8l-6.7,3.3
											c-0.8,0.4-2.3,3.2-1.6,3.8c1.4,1.1,4.1,2.4,4.7,4.1c1,2.7,0.7,3.2,3.4,3.7c1.9,0.3,3.8,0.8,5.6,1.4
											c1.4,0.6,3.9,3.2,2.8,4.1c-0.9,0.8-3.3-3.1-4.4-3.1c-2.2,0-1.4,2.9-1.8,4.2s-1.8,4.1-3.6,2c-0.4-0.5-0.6-1-0.6-1.6
											c-0.2-0.5-1.4-1.4-1.9-1c-0.9,0.7-0.2,4,0.4,4.9c0.9,1.3,2.1,2.3,3.5,3c0.8,0.4,2.3,2.1,3.2,1.8s-1.6-2.5,0.1-3.6
											c1.9-1.3,3.4,3.6,4.2,5c0.7,1.1-1.2,1.9-0.7,5.1c0.5,2.9,5.1,3.6,6.2,5.3c0.9,1.3,3.9,14,4.4,14.8c1.9,2.6,2.7,5.8,2.4,9
											c-0.1,1.2-1.3,2.5-2.1,3.4c-1.7,1.7-1.6,1.3-1.2,3.8c0.4,2.1,0.6,2,2.6,2.8c0.5,0.2,2.3-2.5,2.7-3c0.7-0.8,0.4-7.9,4-5.9
											c1.1,0.6,14.3,1,16.6,11.8c0.5,2.4,0.4,4.9-0.2,7.3c-0.8,3.6-1.4,4.7-3.9,7.6c-1.8,2.1-5.1,0.4-7-0.8
											c-0.6-0.4-2.5-6.1-3-6.4c-1.6-1.2-1.6-1.5-3.4-0.9c-1.4,0.5-0.7,1.9-0.6,3.3c0.2,2.4,1.8,4.8,0.8,7
											c-0.8,1.9-3.6-0.5-5.4-1.3c-1.6-0.8-5,3.9-5.2,5.6s-7.7,0.2-10.2-1.8c-2.2-1.8-8.1-6.4-10.5-7.3s-3.1,1.5-5.7,1.1
											c-1.9-0.3-6.6-3.1-7.1-2c-0.5,1.3-2.6,1.5-3.6,1.6c-2,0.4-4,1-5.9,1.7c-0.8,0.3-1.1,0.2-1.8,0.5c-1.4,0.5-0.9-0.5-1.9-1.3
											c-1.6-1.2-3-0.5-4.8-0.2c-2.3,0.4-3.4-0.4-4.6,1.7c-1.3,2.4,0.7,4.3-1.5,5.9c-1.3,1-3.2-1.2-4.8-1.6
											c-4.1-0.9-8.2-1.4-12.4-1.3c-2.2,0.1-10.6-0.8-11.4,1.2c-0.6,1.6-2.5,4.4-2.4,6.3L-221.2,48.8z M-157.6,62.6
											c0,0.1,0,0.1-0.1,0.1C-157.6,62.6-157.6,62.6-157.6,62.6z"/>
										<path class="st5" d="M-216.2-81.8c-0.4,0.2-0.8-0.8-1.3-0.7c-0.7,0.2-1.3,1.6-0.8,1.9c1.1,0.7,3.2,0.2,3.6,0.9
											c0.6,1.1-0.7,1.8,0.7,2.3s1.3,0.4,0.8,1.9c-0.4,0.5-0.8,1-1.2,1.5c-0.1,0.7,1.5,1.5,1.5,2.2c-0.1,1.8-2.8,1.6-3.7,0.6
											c-0.6-0.6-3.1-3.1-2.9-3.8c0.2-1.1,1-4.1,0.2-5.2c-1.2-1.8-4.2,1-2.5,2.1c0.8,0.5,1.8,4.4,0.8,5.3c-0.7,0.6-2-1.5-2.5-0.8
											c-1,1.3,3.6,2.5,2.9,3.9c-1.4,3-3.6-1-5.8-3.5c-1.6-1.8-6.6-1.2-4.5-3.9c0.2-0.3,0.9,0.2,1-0.1c1.3-3.9,2.7-3.3,3.6-4.1
											c1.1-1,2.2-1.9,3.4-2.9c1.4-1.2,1-2.2,1.6-3.5c0.8-1.8,1.6,0.8,2.7,0.2c0.4-0.2-1-3.4,1.4-2.7c0.8,0.9,1.4,1.9,1.7,3
											C-215.7-85.2-214.7-82.7-216.2-81.8L-216.2-81.8z"/>
										<path class="st5" d="M-251.3-103.8c0.7-0.8,2.9-0.2,2.5,1.1C-249.3-101.2-251.4-102.6-251.3-103.8z"/>
										<path class="st5" d="M-250.2-57.6c-1.4-0.1-1.6-0.4-2.1-1.7c0.1-1.2,0.6-2.3,1.2-3.3c1.1-0.5,1.9,0.9,2.5,1.5
											S-249.8-58.2-250.2-57.6z"/>
										<path class="st5" d="M-248.7-66.4c0.9,0.1,1.5,2.8,0.5,3.7c-1.7,1.5-2.4-0.8-1.6-2C-249.4-65.3-249.3-66.5-248.7-66.4
											L-248.7-66.4z"/>
										<path class="st5" d="M-241.4-90.1c-0.5-0.9,1.8-3.2,2.6-1.4C-237.6-88.9-240.5-88.6-241.4-90.1z"/>
										<path class="st5" d="M-246.5-101.3c1.2,2.2,1.2,2.1-0.6,3.8C-248-99.6-248.1-99.6-246.5-101.3z"/>
										<path class="st5" d="M-278.9-61.7c-0.5-0.9-0.5-1.4,0.4-1.8c0.5-0.2,0.8,0.6,1.3,0.8c1.1,0.5,4.4,0.1,2.9,1.7
											S-276.9-60.7-278.9-61.7z"/>
										<path class="st5" d="M-267.8,156.6c0,0,3.4-18.7-42.8-37.6c-25.4-10.4-33.4-22.7-49.3-28.5c-36.3-12.9-60.9-0.5-60.9-0.5
											L-267.8,156.6z"/>
									</g>
								</g>
							</g>
						</g>
					</g>
				</g>
				<g>
					<defs>
						<rect id="SVGID_9_" width="341.9" height="330.5"/>
					</defs>
					<clipPath id="SVGID_10_">
						<use xlink:href="#SVGID_9_"  style="overflow:visible;"/>
					</clipPath>
					<g class="st6">
						<path class="st7" d="M170.9,4c92.2,0.1,166.9,74.9,166.9,167.1c0,67-40.2,127.5-101.9,153.7c-85,35.8-182.9-4-218.8-88.9
							c-35.8-85,4-182.9,88.9-218.8C126.6,8.4,148.7,3.9,170.9,4 M171,0C76.6,0,0,76.4,0,170.8s76.5,171,170.9,171
							s171-76.5,171-170.9c0,0,0,0,0-0.1C341.9,76.5,265.3,0,171,0C170.9,0,170.9,0,171,0L171,0z"/>
					</g>
				</g>
			</g>
		</g>
		<path class="st7" d="M109.5,304.9c-24-11.2-49.9-31.2-81.6-62.9l-0.3-0.3l19-26.1l0.4,0.2c11.3,6.2,22.9,11.8,34.8,16.7
			c19.4,8,35.7,12.4,48.4,13l0.6,0.1L110,305.1L109.5,304.9z"/>
		<path class="st8" d="M129.4,248.1l-19,54.4c-21.6-10.1-47-28.6-80.9-62.5l4.1-5.8l11.8-16.2c11.5,6.3,23.3,12,35.3,17
			C100.3,243,116.6,247.4,129.4,248.1L129.4,248.1z"/>
		<path class="st8" d="M24.2,185.2L27,190l-13,8.9l-3.4-6c-2.1-3.8-0.8-8.5,2.9-10.7C17.3,180.1,22,181.4,24.2,185.2L24.2,185.2
			L24.2,185.2z"/>
		<path class="st8" d="M47.6,194.8l-10.3,7.3l-0.2,0.1c-0.5,0.3-0.6,1-0.3,1.4c0.1,0.2,0.4,0.4,0.7,0.4c0.3,0.1,0.6,0,0.8-0.1l0,0
			l0.2-0.2c1.3-0.9,2.9-1.2,4.4-1c1.5,0.3,2.8,1.2,3.7,2.4c0.1,0.1,0.2,0.2,0.2,0.3l0.5,0.8c1.6,2.8,0.6,6.3-2.1,7.9c0,0,0,0,0,0
			c-0.5,0.2-0.7,0.8-0.5,1.2c0.1,0.3,0.3,0.5,0.5,0.6c0.2,0.1,0.5,0.2,0.8,0.1c0.1-0.1,0.2-0.1,0.2-0.1c2.8-1.6,6.4-0.6,8,2.2
			c0,0,0,0,0,0l1,1.6c0.7,1.4,0.9,2.9,0.5,4.4c-0.4,1.5-1.4,2.8-2.8,3.5L33.2,239c-6.2,3.5-14.1,1.4-17.6-4.8l-6.4-11.3
			c-4-7-2.2-15.9,4.2-20.9c0.2-0.2,0.5-0.3,0.7-0.5l0.1-0.1l0.9-0.6l12.9-9l0.9-0.6l0.9-0.6l9.7-6.7l0,0c0.3-0.2,0.5-0.4,0.8-0.5
			c3.2-1.9,7.4-0.8,9.3,2.5C51.3,188.9,50.4,192.8,47.6,194.8L47.6,194.8z"/>
		<path class="st7" d="M26.9,243.3c-5.6,0-10.7-3-13.5-7.8L7,224.2c-4.7-8.1-2.7-18.4,4.7-24.2l-3.3-5.8c-2.8-5-1.1-11.4,3.9-14.2
			c5-2.8,11.4-1.1,14.2,3.9l2.4,4.2l9.1-6.3c0.2-0.1,0.3-0.2,0.5-0.4c4.3-2.9,10.1-1.9,13,2.4c2.9,4.3,1.9,10.1-2.4,13l-5,3.6
			c2.1,0.5,3.9,1.9,5,3.7l0.1,0.1l0.4,0.8c1.4,2.4,1.5,5.3,0.3,7.7c2.7,0.3,5.1,1.8,6.5,4.2l1,1.8c2.3,4,0.8,9.1-3.2,11.4l-2.3,1.4
			c-0.2,0.1-0.5,0.2-0.8,0.2c-0.6,0-1.1-0.3-1.3-0.8c-0.4-0.7-0.2-1.7,0.5-2.1l2.4-1.3c2.6-1.4,3.4-4.7,2-7.2c0,0,0,0,0,0l-1-1.7
			c-1.5-2.5-4.7-3.4-7.3-2l-0.3,0.1c-0.1,0-0.3,0.1-0.5,0.1c-0.7,0-1.3-0.4-1.5-1.1c-0.2-0.7,0.1-1.5,0.8-1.8c2.5-1.5,3.4-4.7,2-7.3
			l-0.5-0.7l-0.2-0.3c-1-1.4-2.7-2.2-4.4-2.2c-1.1,0-2.2,0.4-3.1,1l-0.2,0.2l0,0.1c-0.3,0.2-0.6,0.2-0.8,0.2c-0.5,0-1-0.3-1.3-0.7
			c-0.4-0.7-0.2-1.7,0.5-2.1l0.2-0.1l10.2-7.3c2.9-1.9,3.8-5.7,1.9-8.7s-5.7-3.8-8.7-1.9c-0.3,0.1-0.5,0.3-0.8,0.5
			c0,0-0.1,0-0.1,0.1l-9.7,6.7l-0.9,0.6l-0.9,0.6l-12.9,8.9l-0.9,0.6l-0.1,0.1l-0.6,0.5c-6.2,4.8-8,13.4-4.1,20.3L16,234
			c1.6,2.9,4.3,5,7.5,5.8c3.2,0.9,6.6,0.5,9.4-1.2l0.9-0.5c0.3-0.1,0.5-0.2,0.8-0.2c0.1,0,0.2,0.1,0.4,0.1c0.6,0.2,1.1,0.7,1.2,1.4
			c0.1,0.6-0.3,1.2-0.8,1.5l-0.9,0.5C32.2,242.7,29.5,243.4,26.9,243.3L26.9,243.3z M17.4,181.7c-4,0-7.3,3.3-7.3,7.3
			c0,1.3,0.3,2.5,0.9,3.6l3.2,5.6l12.1-8.4l-2.5-4.4C22.4,183.1,20,181.7,17.4,181.7z"/>
		<path class="st9" d="M43.3,170.7c6.8-6.8,6.8-17.8,0-24.6c0,0,0,0,0,0c-7.8-7.8-28.6-9.8-34.8-10.2c0.4,6.2,2.4,27,10.2,34.8
			C25.4,177.5,36.5,177.5,43.3,170.7z"/>
		<path class="st7" d="M8.9,134.8H8.5c-0.3,0.1-0.5,0.2-0.7,0.4c-0.2,0.2-0.4,0.6-0.4,0.9c0,0,0,0.1,0,0.1v0.1
			c0.5,6.3,2.5,27.6,10.7,35.7c4.5,4.5,11,6.4,17.3,5.1c3.5-0.7,6.8-2.5,9.3-5.1V172c7.3-7.3,7.3-19.2,0-26.6
			C36.5,137.3,15.2,135.2,8.9,134.8z M12,151.6c-0.6-2.5-1.4-8.9-1.9-11.9L22.5,152H12.1L12,151.6z M40.8,171
			c-1.9,1.5-4.1,2.5-6.5,3c-5.3,1.1-10.8-0.5-14.6-4.3c-0.7-0.8-1.4-1.6-2-2.5l-0.5-0.8h19.8l4.3,4.3L40.8,171z M15.7,163.6
			l-0.1-0.3c-1.1-2.5-2-5.2-2.7-7.8l-0.2-0.7l12.6,0.1l8.7,8.7H15.7z M29.9,140.8l0.3,0.2v14.7l-18-18
			C16,138.2,26.2,139.8,29.9,140.8L29.9,140.8z M43.6,168.2l-0.3,0.4l-10.1-10.1v-16.6l0.7,0.3c3.1,1.1,6,2.8,8.4,5
			C47.9,152.9,48.5,161.9,43.6,168.2L43.6,168.2z"/>
		<path class="st10" d="M300.6,319.3c0,28-12.9,36.9-19.5,36.9H70c0-53,35.7-92.4,35.7-130.9c0-21.4-6.7-28.2-6.7-48.2
			c0-9.3,3.3-17.5,9.1-25.2c-0.7-2.4-1.1-4.9-1.2-7.4c0-5.3,3-10.5,9.3-10.5c3.2,0,6.4,0.8,9.3,2.3c6.5-3.3,13.7-5,21.1-5
			c13.2,0,23.2,2.2,31.9,7.5c2.4-3.3,5.3-4.9,10.5-4.9c7.3,0,10.2,7,10.2,11.3c0,3.6-1,7.2-2.9,10.2c3.3,3.7,6.6,7.3,10.2,11.9
			c18.8,24.2,34.8,49.6,49,68.6S300.6,291.2,300.6,319.3L300.6,319.3z"/>
		<path class="st7" d="M112.2,149.6c0,0-3.3-5.7-0.9-8.1c0,0,2-2.6,7.6,1.6C116.4,145,114.1,147.1,112.2,149.6"/>
		<path class="st7" d="M181.4,143.1c2.1,1.9,4.1,4,5.9,6.3c2.5-2.4,7.1-7.5,3.6-10.5C190,138.2,187.5,136.5,181.4,143.1"/>
		<path class="st11" d="M108.8,138.8c2.3-4,9.7-1.6,13.6,2.1"/>
		<path class="st11" d="M193.7,135.7c4.9,2.6,1.4,11.4-3.2,16.2"/>
		<path class="st7" d="M320.1,186.3c-0.3,0.1-9.2,2.1-12,7l-0.7,1.7c-1.8,4-4.6,7.4-8.2,9.9c-0.1,0-0.2,0.1-0.3,0.2
			c0.1,2.4,6.5,0.6,9.6-1.7c0,0-3.6,5.2-14.3,10.1c-1.2,0.5-2.4,0.9-3.6,1.2c3.2,0.4,6.8-1,10.8-3.4c0,0-2,4.1-16.3,10.6
			c-0.8,0.4-1.6,0.7-2.4,0.9c2,1,5.6-0.6,9.5-2.3c0,0-2.4,3.5-15.2,9.3c-0.6,0.3-1.3,0.6-1.9,0.8c1.7,0.7,2.9,0.6,9-1.6
			c0,0-4.6,4.6-13.5,8.6c-0.6,0.3-1.1,0.5-1.7,0.7c1.7,2.3,8.6-2,8.8-2.1c-0.2,0.2-6.9,7.7-11.5,9.7c-2.5,1.2-5.2,1.9-7.9,2.1
			c-0.4,0-0.9,0-1.3,0c-5.6,0.1-10.8,2.5-14.6,6.6l-13.8,15l-2.4-0.6l14.8-19.9c2.2-3.1,2.9-7,1.7-10.6c-0.3-1.1-0.6-2.1-0.6-3.2
			c-0.7-11.8,10.3-22.5,10.3-22.5c-2.6,4.8-3.6,7.5-2.8,11.8c1.5-8.3,8.4-16,12.3-19.8c-2.2,3.4-3.1,4.9-3.3,9.6
			c2.7-8.8,10.8-14.9,11-15.1c-2.5,2.7-2.6,5.6-3.4,9.1c3.1-6.6,7.6-12.5,13.2-17.2c-2.2,3.1-3,8.8-3,10.5
			c2.3-5.2,4.8-10.3,10.6-15.1c-1.1,1.9-2.4,3-2,6c3-4.6,6.5-7.4,9.3-8.7s8.7-3,11.1-2.7c0,0-7.1,2-7.6,5.5c0.1,2.2-0.2,4.4-0.8,6.5
			c1.5-0.6,3.1-1,4.8-1.2c2.6-0.4,5-1.2,7.3-2.5C311.9,187.9,315.9,186.2,320.1,186.3L320.1,186.3z"/>
		<path class="st12" d="M269.4,241.6c-3.2,2.4-7.1,3.9-11.1,4.2c-2.9,0.1-5.7-0.9-7.9-2.9c1.8-2.3,4.5-3.7,7.4-4
			C261.8,238.7,265.8,239.7,269.4,241.6L269.4,241.6z"/>
		<path class="st12" d="M273.8,232.9c-2.9,2.3-6.3,3.8-10,4.2c-2.7,0.2-5.3-0.6-7.3-2.4c1.6-2.1,4-3.5,6.7-3.9
			C266.8,230.6,270.5,231.3,273.8,232.9L273.8,232.9z"/>
		<path class="st12" d="M280.7,224.7c-2.9,2.5-6.4,4.1-10.2,4.6c-2.7,0.3-5.5-0.5-7.6-2.2c1.6-2.3,4-3.8,6.8-4.2
			C273.5,222.5,277.3,223.1,280.7,224.7L280.7,224.7z"/>
		<path class="st12" d="M288.8,216.7c-2.7,2.4-6,3.9-9.5,4.5c-2.6,0.3-5.1-0.4-7.2-1.9c1.5-2.1,3.7-3.6,6.3-4
			C281.9,214.7,285.5,215.2,288.8,216.7z"/>
		<path class="st12" d="M298.4,207.6c-2.5,2.4-5.7,4.1-9.1,4.8c-2.5,0.5-5.1-0.1-7.1-1.6c1.4-2.2,3.5-3.7,6-4.2
			C291.6,206,295.2,206.3,298.4,207.6L298.4,207.6z"/>
		<path class="st12" d="M305.1,194.2c-1.6,3.5-4.1,6.5-7.3,8.7c-2.4,1.5-5.3,2-8,1.3c0.5-2.7,2.1-5.2,4.4-6.8
			C297.5,195.3,301.3,194.2,305.1,194.2z"/>
		<path class="st12" d="M256.2,215.5c1.7,3.7,2.3,7.8,1.8,11.9c-0.5,2.9-2.1,5.5-4.5,7.2c-1.8-2.3-2.6-5.3-2.3-8.2
			C251.8,222.4,253.6,218.6,256.2,215.5L256.2,215.5z"/>
		<path class="st12" d="M264.7,207.7c1.3,3.7,1.6,7.7,0.8,11.6c-0.7,2.8-2.5,5.2-4.9,6.6c-1.6-2.4-2.2-5.3-1.6-8.1
			C259.9,214,261.9,210.5,264.7,207.7L264.7,207.7z"/>
		<path class="st12" d="M274,201c1.1,3.7,1.1,7.7,0,11.4c-0.8,2.7-2.7,4.9-5.2,6.2c-1.4-2.4-1.8-5.3-1.1-8
			C268.9,206.9,271,203.5,274,201z"/>
		<path class="st12" d="M284.1,194.8c0.7,3.5,0.4,7.1-0.8,10.5c-1,2.4-2.9,4.3-5.3,5.3c-1.1-2.3-1.2-5-0.4-7.4
			C279,199.8,281.3,196.9,284.1,194.8z"/>
		<path class="st12" d="M295.1,186.6c0.1,3.5-0.9,7-2.7,10c-1.4,2.2-3.6,3.7-6.1,4.2c-0.7-2.5-0.3-5.1,1-7.3
			C289.3,190.4,292,188.1,295.1,186.6z"/>
		<path class="st7" d="M235.5,170.2c0.1,0.3,3.5,8.8,1.2,13.9l-1,1.6c-2.3,3.7-3.4,8-3.4,12.4c0,0.1,0,0.2,0,0.3
			c-2,1.3-4.3-4.9-4.1-8.8c0,0-2.2,5.9,0,17.5c0.2,1.2,0.6,2.5,1,3.6c-2.1-2.4-3.1-6.2-3.4-10.8c0,0-2.2,4,0.7,19.4
			c0.2,0.8,0.4,1.7,0.6,2.5c-2-1-2.7-4.9-3.6-9.1c0,0-1.5,4,1.1,17.9c0.2,0.7,0.3,1.3,0.5,2c-1.6-1-2.2-2-3.9-8.3
			c0,0-1.1,6.3,0.7,15.9c0.1,0.6,0.2,1.2,0.4,1.8c-2.9,0-3.3-8.2-3.3-8.4c-0.1,0.3-2.3,10-1.4,15c0.5,2.7,1.4,5.3,2.8,7.7
			c0.2,0.4,0.4,0.7,0.7,1c3.2,4.6,4.2,10.3,3,15.7l-4.3,19.9l1.9,1.7l7.8-23.5c1.2-3.6,4.1-6.4,7.7-7.5c1.1-0.3,2.1-0.8,3-1.4
			c10-6.2,12.5-21.4,12.5-21.4c-2.4,4.9-4.1,7.3-8,9.1c6-6,8.2-16.1,9.1-21.5c-1.5,3.7-2.2,5.4-5.9,8.2c5.6-7.2,6-17.4,6-17.7
			c-0.7,3.6-3,5.4-5.5,8.1c3.6-6.4,5.8-13.4,6.4-20.7c-1.2,3.6-5.4,7.6-6.8,8.5c3-4.9,5.7-9.8,6.3-17.3c-0.9,1.9-1.1,3.7-3.7,5.1
			c2-5.1,2.4-9.6,1.8-12.7s-2.6-8.9-4.2-10.6c0,0,2.4,7-0.1,9.4c-1.8,1.2-3.5,2.7-4.9,4.4c-0.4-1.6-1-3.1-1.8-4.6
			c-1.2-2.3-1.9-4.8-2.2-7.4C238.8,177.1,237.5,173.4,235.5,170.2L235.5,170.2z"/>
		<path class="st12" d="M219.5,243.5c-0.2,4,0.8,8,2.9,11.5c1.5,2.5,4,4.2,6.9,4.8c0.8-2.8,0.4-5.8-1-8.4
			C226.1,248.1,223.1,245.3,219.5,243.5L219.5,243.5z"/>
		<path class="st12" d="M224,234.9c-0.2,3.7,0.6,7.3,2.3,10.6c1.3,2.3,3.6,4,6.2,4.6c0.8-2.5,0.5-5.3-0.7-7.6
			C230,239.2,227.3,236.6,224,234.9z"/>
		<path class="st12" d="M226.7,224.5c-0.3,3.8,0.4,7.6,2.1,11c1.3,2.4,3.6,4.2,6.2,5c0.9-2.6,0.7-5.5-0.5-8
			C232.8,229.2,230.1,226.4,226.7,224.5L226.7,224.5z"/>
		<path class="st12" d="M228.7,213.3c-0.4,3.5,0.3,7.1,1.8,10.3c1.2,2.3,3.3,4,5.7,4.8c0.9-2.4,0.8-5.1-0.3-7.4
			C234.2,217.8,231.7,215.1,228.7,213.3L228.7,213.3z"/>
		<path class="st12" d="M230.5,200.2c-0.5,3.5-0.1,7,1.3,10.2c1.1,2.3,3,4.1,5.4,5c1-2.3,1-5,0-7.3
			C235.8,204.9,233.4,202.1,230.5,200.2z"/>
		<path class="st12" d="M237.7,187c-2,3.3-3,7.1-2.9,11c0.2,2.8,1.4,5.4,3.5,7.3c2-2,3.1-4.7,3-7.5
			C241.1,193.9,239.9,190.2,237.7,187z"/>
		<path class="st12" d="M246.5,251.6c-4,0-7.9,1.1-11.2,3.2c-2.4,1.6-4.1,4.1-4.6,6.9c2.8,0.7,5.7,0.3,8.2-1.2
			C242.2,258.3,244.8,255.2,246.5,251.6z"/>
		<path class="st12" d="M248.3,239.3c-4,0.7-7.7,2.6-10.7,5.3c-2.1,2.1-3.3,4.9-3.3,7.8c2.9,0.2,5.8-0.8,8-2.8
			C245.3,246.8,247.4,243.2,248.3,239.3L248.3,239.3z"/>
		<path class="st12" d="M249.8,227.8c-3.8,1-7.3,3.1-10,6c-1.9,2.2-2.8,5-2.6,7.8c2.9-0.1,5.6-1.3,7.5-3.4
			C247.4,235.4,249.2,231.7,249.8,227.8z"/>
		<path class="st12" d="M250,216.3c-3.7,1.3-6.9,3.5-9.3,6.5c-1.7,2.2-2.4,5.1-2,7.8c2.8-0.2,5.4-1.6,7.1-3.8
			C248.2,223.8,249.6,220.2,250,216.3z"/>
		<path class="st12" d="M249.3,204.5c-3.3,1.4-6.1,3.7-8.1,6.7c-1.4,2.2-1.9,4.8-1.3,7.4c2.6-0.4,4.8-1.9,6.3-4
			C248.1,211.5,249.2,208.1,249.3,204.5L249.3,204.5z"/>
		<path class="st12" d="M249.6,190.8c-2.9,2-5.2,4.8-6.7,8c-1,2.4-0.9,5,0.1,7.4c2.4-0.9,4.3-2.7,5.4-5
			C249.8,197.9,250.2,194.3,249.6,190.8L249.6,190.8z"/>
		<path class="st7" d="M338.4,248.4c-0.3-0.1-8.7-1.8-12.9,1.3l-1.2,1.2c-3.1,2.7-6.8,4.5-10.9,5.2c-0.1,0-0.2,0-0.3,0
			c-0.9,2.1,5.3,3,8.8,2.3c0,0-5,3-16,3c-1.2,0-2.4-0.1-3.6-0.3c2.6,1.5,6.2,1.8,10.6,1.3c0,0-3.3,2.7-18,2.7c-0.8,0-1.6,0-2.4-0.2
			c1.3,1.6,5,1.6,9,1.8c0,0-3.4,2-16.6,2c-0.7,0-1.3,0-2-0.1c1.2,1.3,2.2,1.7,8.3,2.2c-4.8,1.5-9.8,2.3-14.8,2.2
			c-0.6,0-1.2,0-1.8-0.1c0.6,2.6,8.1,1.6,8.4,1.6c-0.3,0.1-8.8,3.8-13.6,3.8c-2.6,0-5.1-0.4-7.6-1.3c-0.4-0.2-0.7-0.3-1-0.5
			c-4.8-2.1-10.2-2.1-14.9-0.1l-17.5,7.4l-1.9-1.5l20.3-11.2c3.1-1.7,5.2-4.8,5.6-8.4c0.1-1,0.4-2,0.8-3c4-10.3,17.5-15.1,17.5-15.1
			c-4.1,3.1-6,5-6.9,8.9c4.5-6.5,13.4-10.3,18.2-12.1c-3.2,2-4.6,3-6.5,6.8c5.7-6.4,15-8.5,15.2-8.6c-3.1,1.3-4.4,3.7-6.5,6.4
			c5.2-4.4,11.3-7.7,17.9-9.5c-3.1,1.8-6,6.3-6.7,7.8c4-3.6,8.1-7,14.9-8.8c-1.6,1.2-3.2,1.6-4,4.3c4.4-2.8,8.4-3.8,11.4-3.8
			s8.6,0.9,10.5,2c0,0-6.8-1-8.6,1.7c-0.8,1.9-1.9,3.7-3.2,5.2c1.5,0.1,3,0.4,4.5,0.8c2.3,0.7,4.8,0.9,7.2,0.8
			C331.5,246.4,335.1,247,338.4,248.4L338.4,248.4z"/>
		<path class="st12" d="M273.8,275.7c-3.7,0.8-7.5,0.6-11-0.7c-2.5-1-4.6-3-5.6-5.5c2.4-1.2,5.3-1.4,7.8-0.5
			C268.5,270.4,271.5,272.7,273.8,275.7z"/>
		<path class="st12" d="M281,270.1c-3.3,0.9-6.9,0.7-10.1-0.3c-2.4-0.8-4.3-2.6-5.3-4.8c2.2-1.2,4.8-1.4,7.2-0.7
			C276,265.3,278.8,267.4,281,270.1z"/>
		<path class="st12" d="M290,265.7c-3.4,1-7.1,1-10.5,0c-2.4-0.8-4.4-2.6-5.5-4.9c2.2-1.3,4.9-1.6,7.4-0.9
			C284.7,261,287.7,263,290,265.7z"/>
		<path class="st12" d="M300,262c-3.2,1-6.6,1-9.8,0.1c-2.3-0.7-4.2-2.3-5.3-4.5c2.1-1.2,4.5-1.6,6.9-0.9
			C295,257.7,297.8,259.5,300,262z"/>
		<path class="st12" d="M311.7,258.1c-3.1,1.1-6.4,1.3-9.6,0.6c-2.3-0.6-4.3-2.1-5.5-4.1c2-1.3,4.4-1.8,6.7-1.3
			C306.5,254.1,309.4,255.7,311.7,258.1z"/>
		<path class="st12" d="M322.6,249.2c-2.7,2.4-6,4-9.6,4.6c-2.6,0.4-5.2-0.4-7.3-1.9c1.5-2.2,3.8-3.6,6.3-4.1
			C315.7,247.3,319.3,247.8,322.6,249.2z"/>
		<path class="st12" d="M261.7,252.2c0.7,3.6,0.3,7.4-1,10.9c-1.1,2.5-3.1,4.4-5.6,5.4c-1.1-2.4-1.2-5.2-0.2-7.8
			C256.3,257.3,258.7,254.4,261.7,252.2z"/>
		<path class="st12" d="M272.7,248.4c0,3.8-1.1,7.5-3.1,10.8c-1.5,2.3-3.9,3.8-6.6,4.3c-0.7-2.7-0.2-5.5,1.2-7.8
			C266.3,252.5,269.3,250,272.7,248.4L272.7,248.4z"/>
		<path class="st12" d="M283,245.1c-0.3,3.7-1.6,7.2-3.8,10.1c-1.7,2.1-4.1,3.4-6.7,3.7c-0.4-2.6,0.2-5.4,1.8-7.5
			C276.5,248.5,279.5,246.3,283,245.1z"/>
		<path class="st12" d="M293.6,242.9c-0.5,3.6-2,6.9-4.4,9.7c-1.8,1.9-4.2,3.1-6.9,3.2c-0.3-2.6,0.5-5.2,2.2-7.2
			C286.9,245.9,290.1,243.9,293.6,242.9L293.6,242.9z"/>
		<path class="st12" d="M304.6,241.6c-0.7,3.3-2.4,6.2-4.8,8.6c-1.8,1.7-4.1,2.5-6.5,2.4c-0.1-2.4,0.9-4.8,2.6-6.5
			C298.3,243.8,301.3,242.3,304.6,241.6L304.6,241.6z"/>
		<path class="st12" d="M317.1,238.9c-1.3,3-3.4,5.6-6.1,7.5c-2,1.3-4.5,1.7-6.8,1.2c0.4-2.4,1.7-4.5,3.6-5.9
			C310.6,240,313.8,239,317.1,238.9z"/>
		<path class="st10" d="M269,287c-1.7,2-4.3,3.1-6.9,3c-15.9,0-34.8-21.7-53.7-21.7c-14.2,0-21.9,12.7-21.9,24.7
			c0,27.7,43,63.3,84.3,63.3"/>
		<path class="st11" d="M149.3,153.2c0,0,0.6-0.9,2.7-0.9c1.3,0,2.6,0.6,3.4,1.6"/>
		<path class="st11" d="M119.9,149.9c0.9-0.7,2-1.2,3.1-1.1c1.3,0.1,2.5,0.6,3.5,1.4"/>
		<path class="st11" d="M110.7,159c2.7-2.9,6.5-4.5,10.5-4.6c8.1,0,12.3,2.7,12.3,2.7"/>
		<path class="st13" d="M109.7,163.5c-0.7-0.9-0.7-2.2,0-3.2c1.8-2.8,4.9-4.5,8.2-4.6c5.9,0,7.5,0.8,10.5,7.2c0.4,1,0.3,2.2-0.5,3
			l-4.7,4.9c-0.6,0.6-1.5,0.9-2.3,0.8l-4.6-0.6c-0.7-0.1-1.3-0.5-1.8-1L109.7,163.5z"/>
		<path class="st14" d="M116.8,170.6c0.1,3.4-2.5,8.6-9.7,6.6c1.1,3.9,7.5,13.2,14.5,13.2c10,0,19.8-7.4,20.8-11.5
			c-2.3,1.6-7.1,2.2-11.2,2.2c-8.1,0-13.4-8.6-13.5-10.4L116.8,170.6z"/>
		<path class="st15" d="M31.5,298.7c0,0.1-0.1,0.2-0.2,0.2c0,0,0,0,0,0c-4.8,0.1-8.6,4-8.7,8.7c0,0.1-0.1,0.2-0.2,0.2
			c-0.1,0-0.2-0.1-0.2-0.2c0,0,0,0,0,0c-0.2-4.8-4-8.6-8.7-8.7c-0.1,0-0.2-0.1-0.2-0.2c0-0.1,0.1-0.2,0.2-0.2c0,0,0,0,0,0
			c4.8-0.1,8.6-4,8.7-8.7c0-0.1,0.1-0.2,0.2-0.2c0.1,0,0.2,0.1,0.2,0.2c0.1,4.8,4,8.6,8.7,8.7C31.4,298.5,31.5,298.6,31.5,298.7z"/>
		<path class="st16" d="M340.3,288.4c0.1,0.1,0.1,0.3,0,0.4c0,0,0,0,0,0c-4.4,4.6-4.4,11.9,0,16.5c0.1,0.1,0.1,0.3,0,0.4
			c0,0,0,0,0,0c-0.1,0.1-0.3,0.1-0.4,0c0,0,0,0,0,0c-4.6-4.4-11.9-4.4-16.5,0c-0.1,0.1-0.3,0.1-0.4,0s-0.1-0.3,0-0.4
			c4.4-4.6,4.4-11.9,0-16.5c-0.1-0.1-0.1-0.3,0-0.4c0,0,0,0,0,0c0.1-0.1,0.3-0.1,0.4,0c0,0,0,0,0,0c4.6,4.4,11.9,4.4,16.5,0
			C339.9,288.3,340.1,288.3,340.3,288.4C340.2,288.4,340.3,288.4,340.3,288.4z"/>
	</g>
</g>
</svg>
